%TF.GenerationSoftware,KiCad,Pcbnew,(5.99.0-12181-g5e8b23af64)*%
%TF.CreationDate,2021-11-12T15:18:20+01:00*%
%TF.ProjectId,phoniebox_shield,70686f6e-6965-4626-9f78-5f736869656c,rev?*%
%TF.SameCoordinates,Original*%
%TF.FileFunction,Legend,Top*%
%TF.FilePolarity,Positive*%
%FSLAX46Y46*%
G04 Gerber Fmt 4.6, Leading zero omitted, Abs format (unit mm)*
G04 Created by KiCad (PCBNEW (5.99.0-12181-g5e8b23af64)) date 2021-11-12 15:18:20*
%MOMM*%
%LPD*%
G01*
G04 APERTURE LIST*
%ADD10C,0.150000*%
%ADD11C,0.120000*%
G04 APERTURE END LIST*
D10*
%TO.C,U101*%
X113852380Y-108514285D02*
X114661904Y-108514285D01*
X114757142Y-108466666D01*
X114804761Y-108419047D01*
X114852380Y-108323809D01*
X114852380Y-108133333D01*
X114804761Y-108038095D01*
X114757142Y-107990476D01*
X114661904Y-107942857D01*
X113852380Y-107942857D01*
X114852380Y-106942857D02*
X114852380Y-107514285D01*
X114852380Y-107228571D02*
X113852380Y-107228571D01*
X113995238Y-107323809D01*
X114090476Y-107419047D01*
X114138095Y-107514285D01*
X113852380Y-106323809D02*
X113852380Y-106228571D01*
X113900000Y-106133333D01*
X113947619Y-106085714D01*
X114042857Y-106038095D01*
X114233333Y-105990476D01*
X114471428Y-105990476D01*
X114661904Y-106038095D01*
X114757142Y-106085714D01*
X114804761Y-106133333D01*
X114852380Y-106228571D01*
X114852380Y-106323809D01*
X114804761Y-106419047D01*
X114757142Y-106466666D01*
X114661904Y-106514285D01*
X114471428Y-106561904D01*
X114233333Y-106561904D01*
X114042857Y-106514285D01*
X113947619Y-106466666D01*
X113900000Y-106419047D01*
X113852380Y-106323809D01*
X114852380Y-105038095D02*
X114852380Y-105609523D01*
X114852380Y-105323809D02*
X113852380Y-105323809D01*
X113995238Y-105419047D01*
X114090476Y-105514285D01*
X114138095Y-105609523D01*
%TO.C,J103*%
X81314285Y-87252380D02*
X81314285Y-87966666D01*
X81266666Y-88109523D01*
X81171428Y-88204761D01*
X81028571Y-88252380D01*
X80933333Y-88252380D01*
X82314285Y-88252380D02*
X81742857Y-88252380D01*
X82028571Y-88252380D02*
X82028571Y-87252380D01*
X81933333Y-87395238D01*
X81838095Y-87490476D01*
X81742857Y-87538095D01*
X82933333Y-87252380D02*
X83028571Y-87252380D01*
X83123809Y-87300000D01*
X83171428Y-87347619D01*
X83219047Y-87442857D01*
X83266666Y-87633333D01*
X83266666Y-87871428D01*
X83219047Y-88061904D01*
X83171428Y-88157142D01*
X83123809Y-88204761D01*
X83028571Y-88252380D01*
X82933333Y-88252380D01*
X82838095Y-88204761D01*
X82790476Y-88157142D01*
X82742857Y-88061904D01*
X82695238Y-87871428D01*
X82695238Y-87633333D01*
X82742857Y-87442857D01*
X82790476Y-87347619D01*
X82838095Y-87300000D01*
X82933333Y-87252380D01*
X83600000Y-87252380D02*
X84219047Y-87252380D01*
X83885714Y-87633333D01*
X84028571Y-87633333D01*
X84123809Y-87680952D01*
X84171428Y-87728571D01*
X84219047Y-87823809D01*
X84219047Y-88061904D01*
X84171428Y-88157142D01*
X84123809Y-88204761D01*
X84028571Y-88252380D01*
X83742857Y-88252380D01*
X83647619Y-88204761D01*
X83600000Y-88157142D01*
X89852380Y-91452380D02*
X89852380Y-91261904D01*
X89900000Y-91166666D01*
X89995238Y-91071428D01*
X90185714Y-91023809D01*
X90519047Y-91023809D01*
X90709523Y-91071428D01*
X90804761Y-91166666D01*
X90852380Y-91261904D01*
X90852380Y-91452380D01*
X90804761Y-91547619D01*
X90709523Y-91642857D01*
X90519047Y-91690476D01*
X90185714Y-91690476D01*
X89995238Y-91642857D01*
X89900000Y-91547619D01*
X89852380Y-91452380D01*
X90852380Y-90119047D02*
X90852380Y-90595238D01*
X89852380Y-90595238D01*
X90328571Y-89785714D02*
X90328571Y-89452380D01*
X90852380Y-89309523D02*
X90852380Y-89785714D01*
X89852380Y-89785714D01*
X89852380Y-89309523D01*
X90852380Y-88880952D02*
X89852380Y-88880952D01*
X89852380Y-88642857D01*
X89900000Y-88500000D01*
X89995238Y-88404761D01*
X90090476Y-88357142D01*
X90280952Y-88309523D01*
X90423809Y-88309523D01*
X90614285Y-88357142D01*
X90709523Y-88404761D01*
X90804761Y-88500000D01*
X90852380Y-88642857D01*
X90852380Y-88880952D01*
%TO.C,J115*%
X126852380Y-123285714D02*
X127566666Y-123285714D01*
X127709523Y-123333333D01*
X127804761Y-123428571D01*
X127852380Y-123571428D01*
X127852380Y-123666666D01*
X127852380Y-122285714D02*
X127852380Y-122857142D01*
X127852380Y-122571428D02*
X126852380Y-122571428D01*
X126995238Y-122666666D01*
X127090476Y-122761904D01*
X127138095Y-122857142D01*
X127852380Y-121333333D02*
X127852380Y-121904761D01*
X127852380Y-121619047D02*
X126852380Y-121619047D01*
X126995238Y-121714285D01*
X127090476Y-121809523D01*
X127138095Y-121904761D01*
X126852380Y-120428571D02*
X126852380Y-120904761D01*
X127328571Y-120952380D01*
X127280952Y-120904761D01*
X127233333Y-120809523D01*
X127233333Y-120571428D01*
X127280952Y-120476190D01*
X127328571Y-120428571D01*
X127423809Y-120380952D01*
X127661904Y-120380952D01*
X127757142Y-120428571D01*
X127804761Y-120476190D01*
X127852380Y-120571428D01*
X127852380Y-120809523D01*
X127804761Y-120904761D01*
X127757142Y-120952380D01*
X120580952Y-129652380D02*
X120580952Y-128652380D01*
X120961904Y-128652380D01*
X121057142Y-128700000D01*
X121104761Y-128747619D01*
X121152380Y-128842857D01*
X121152380Y-128985714D01*
X121104761Y-129080952D01*
X121057142Y-129128571D01*
X120961904Y-129176190D01*
X120580952Y-129176190D01*
X121580952Y-129652380D02*
X121580952Y-128985714D01*
X121580952Y-129176190D02*
X121628571Y-129080952D01*
X121676190Y-129033333D01*
X121771428Y-128985714D01*
X121866666Y-128985714D01*
X122580952Y-129604761D02*
X122485714Y-129652380D01*
X122295238Y-129652380D01*
X122200000Y-129604761D01*
X122152380Y-129509523D01*
X122152380Y-129128571D01*
X122200000Y-129033333D01*
X122295238Y-128985714D01*
X122485714Y-128985714D01*
X122580952Y-129033333D01*
X122628571Y-129128571D01*
X122628571Y-129223809D01*
X122152380Y-129319047D01*
X122961904Y-128985714D02*
X123200000Y-129652380D01*
X123438095Y-128985714D01*
X124152380Y-129128571D02*
X124295238Y-129176190D01*
X124342857Y-129223809D01*
X124390476Y-129319047D01*
X124390476Y-129461904D01*
X124342857Y-129557142D01*
X124295238Y-129604761D01*
X124200000Y-129652380D01*
X123819047Y-129652380D01*
X123819047Y-128652380D01*
X124152380Y-128652380D01*
X124247619Y-128700000D01*
X124295238Y-128747619D01*
X124342857Y-128842857D01*
X124342857Y-128938095D01*
X124295238Y-129033333D01*
X124247619Y-129080952D01*
X124152380Y-129128571D01*
X123819047Y-129128571D01*
X124676190Y-128985714D02*
X125057142Y-128985714D01*
X124819047Y-128652380D02*
X124819047Y-129509523D01*
X124866666Y-129604761D01*
X124961904Y-129652380D01*
X125057142Y-129652380D01*
X125390476Y-128985714D02*
X125390476Y-129652380D01*
X125390476Y-129080952D02*
X125438095Y-129033333D01*
X125533333Y-128985714D01*
X125676190Y-128985714D01*
X125771428Y-129033333D01*
X125819047Y-129128571D01*
X125819047Y-129652380D01*
%TO.C,J114*%
X112652380Y-119285714D02*
X113366666Y-119285714D01*
X113509523Y-119333333D01*
X113604761Y-119428571D01*
X113652380Y-119571428D01*
X113652380Y-119666666D01*
X113652380Y-118285714D02*
X113652380Y-118857142D01*
X113652380Y-118571428D02*
X112652380Y-118571428D01*
X112795238Y-118666666D01*
X112890476Y-118761904D01*
X112938095Y-118857142D01*
X113652380Y-117333333D02*
X113652380Y-117904761D01*
X113652380Y-117619047D02*
X112652380Y-117619047D01*
X112795238Y-117714285D01*
X112890476Y-117809523D01*
X112938095Y-117904761D01*
X112985714Y-116476190D02*
X113652380Y-116476190D01*
X112604761Y-116714285D02*
X113319047Y-116952380D01*
X113319047Y-116333333D01*
X113133333Y-129652380D02*
X113133333Y-128652380D01*
X113514285Y-128652380D01*
X113609523Y-128700000D01*
X113657142Y-128747619D01*
X113704761Y-128842857D01*
X113704761Y-128985714D01*
X113657142Y-129080952D01*
X113609523Y-129128571D01*
X113514285Y-129176190D01*
X113133333Y-129176190D01*
X114133333Y-129652380D02*
X114133333Y-128985714D01*
X114133333Y-129176190D02*
X114180952Y-129080952D01*
X114228571Y-129033333D01*
X114323809Y-128985714D01*
X114419047Y-128985714D01*
X115133333Y-129604761D02*
X115038095Y-129652380D01*
X114847619Y-129652380D01*
X114752380Y-129604761D01*
X114704761Y-129509523D01*
X114704761Y-129128571D01*
X114752380Y-129033333D01*
X114847619Y-128985714D01*
X115038095Y-128985714D01*
X115133333Y-129033333D01*
X115180952Y-129128571D01*
X115180952Y-129223809D01*
X114704761Y-129319047D01*
X115514285Y-128985714D02*
X115752380Y-129652380D01*
X115990476Y-128985714D01*
X116847619Y-129652380D02*
X116371428Y-129652380D01*
X116371428Y-128652380D01*
X117561904Y-129604761D02*
X117466666Y-129652380D01*
X117276190Y-129652380D01*
X117180952Y-129604761D01*
X117133333Y-129509523D01*
X117133333Y-129128571D01*
X117180952Y-129033333D01*
X117276190Y-128985714D01*
X117466666Y-128985714D01*
X117561904Y-129033333D01*
X117609523Y-129128571D01*
X117609523Y-129223809D01*
X117133333Y-129319047D01*
X118466666Y-129652380D02*
X118466666Y-128652380D01*
X118466666Y-129604761D02*
X118371428Y-129652380D01*
X118180952Y-129652380D01*
X118085714Y-129604761D01*
X118038095Y-129557142D01*
X117990476Y-129461904D01*
X117990476Y-129176190D01*
X118038095Y-129080952D01*
X118085714Y-129033333D01*
X118180952Y-128985714D01*
X118371428Y-128985714D01*
X118466666Y-129033333D01*
%TO.C,J113*%
X105052380Y-119285714D02*
X105766666Y-119285714D01*
X105909523Y-119333333D01*
X106004761Y-119428571D01*
X106052380Y-119571428D01*
X106052380Y-119666666D01*
X106052380Y-118285714D02*
X106052380Y-118857142D01*
X106052380Y-118571428D02*
X105052380Y-118571428D01*
X105195238Y-118666666D01*
X105290476Y-118761904D01*
X105338095Y-118857142D01*
X106052380Y-117333333D02*
X106052380Y-117904761D01*
X106052380Y-117619047D02*
X105052380Y-117619047D01*
X105195238Y-117714285D01*
X105290476Y-117809523D01*
X105338095Y-117904761D01*
X105052380Y-117000000D02*
X105052380Y-116380952D01*
X105433333Y-116714285D01*
X105433333Y-116571428D01*
X105480952Y-116476190D01*
X105528571Y-116428571D01*
X105623809Y-116380952D01*
X105861904Y-116380952D01*
X105957142Y-116428571D01*
X106004761Y-116476190D01*
X106052380Y-116571428D01*
X106052380Y-116857142D01*
X106004761Y-116952380D01*
X105957142Y-117000000D01*
X105757142Y-129702380D02*
X105757142Y-128702380D01*
X106328571Y-129702380D01*
X106328571Y-128702380D01*
X107185714Y-129654761D02*
X107090476Y-129702380D01*
X106900000Y-129702380D01*
X106804761Y-129654761D01*
X106757142Y-129559523D01*
X106757142Y-129178571D01*
X106804761Y-129083333D01*
X106900000Y-129035714D01*
X107090476Y-129035714D01*
X107185714Y-129083333D01*
X107233333Y-129178571D01*
X107233333Y-129273809D01*
X106757142Y-129369047D01*
X107566666Y-129702380D02*
X108090476Y-129035714D01*
X107566666Y-129035714D02*
X108090476Y-129702380D01*
X108328571Y-129035714D02*
X108709523Y-129035714D01*
X108471428Y-128702380D02*
X108471428Y-129559523D01*
X108519047Y-129654761D01*
X108614285Y-129702380D01*
X108709523Y-129702380D01*
X109376190Y-129178571D02*
X109519047Y-129226190D01*
X109566666Y-129273809D01*
X109614285Y-129369047D01*
X109614285Y-129511904D01*
X109566666Y-129607142D01*
X109519047Y-129654761D01*
X109423809Y-129702380D01*
X109042857Y-129702380D01*
X109042857Y-128702380D01*
X109376190Y-128702380D01*
X109471428Y-128750000D01*
X109519047Y-128797619D01*
X109566666Y-128892857D01*
X109566666Y-128988095D01*
X109519047Y-129083333D01*
X109471428Y-129130952D01*
X109376190Y-129178571D01*
X109042857Y-129178571D01*
X109900000Y-129035714D02*
X110280952Y-129035714D01*
X110042857Y-128702380D02*
X110042857Y-129559523D01*
X110090476Y-129654761D01*
X110185714Y-129702380D01*
X110280952Y-129702380D01*
X110614285Y-129035714D02*
X110614285Y-129702380D01*
X110614285Y-129130952D02*
X110661904Y-129083333D01*
X110757142Y-129035714D01*
X110899999Y-129035714D01*
X110995238Y-129083333D01*
X111042857Y-129178571D01*
X111042857Y-129702380D01*
%TO.C,J112*%
X97652380Y-119285714D02*
X98366666Y-119285714D01*
X98509523Y-119333333D01*
X98604761Y-119428571D01*
X98652380Y-119571428D01*
X98652380Y-119666666D01*
X98652380Y-118285714D02*
X98652380Y-118857142D01*
X98652380Y-118571428D02*
X97652380Y-118571428D01*
X97795238Y-118666666D01*
X97890476Y-118761904D01*
X97938095Y-118857142D01*
X98652380Y-117333333D02*
X98652380Y-117904761D01*
X98652380Y-117619047D02*
X97652380Y-117619047D01*
X97795238Y-117714285D01*
X97890476Y-117809523D01*
X97938095Y-117904761D01*
X97747619Y-116952380D02*
X97700000Y-116904761D01*
X97652380Y-116809523D01*
X97652380Y-116571428D01*
X97700000Y-116476190D01*
X97747619Y-116428571D01*
X97842857Y-116380952D01*
X97938095Y-116380952D01*
X98080952Y-116428571D01*
X98652380Y-117000000D01*
X98652380Y-116380952D01*
X98309523Y-129702380D02*
X98309523Y-128702380D01*
X98880952Y-129702380D01*
X98880952Y-128702380D01*
X99738095Y-129654761D02*
X99642857Y-129702380D01*
X99452380Y-129702380D01*
X99357142Y-129654761D01*
X99309523Y-129559523D01*
X99309523Y-129178571D01*
X99357142Y-129083333D01*
X99452380Y-129035714D01*
X99642857Y-129035714D01*
X99738095Y-129083333D01*
X99785714Y-129178571D01*
X99785714Y-129273809D01*
X99309523Y-129369047D01*
X100119047Y-129702380D02*
X100642857Y-129035714D01*
X100119047Y-129035714D02*
X100642857Y-129702380D01*
X100880952Y-129035714D02*
X101261904Y-129035714D01*
X101023809Y-128702380D02*
X101023809Y-129559523D01*
X101071428Y-129654761D01*
X101166666Y-129702380D01*
X101261904Y-129702380D01*
X102071428Y-129702380D02*
X101595238Y-129702380D01*
X101595238Y-128702380D01*
X102785714Y-129654761D02*
X102690476Y-129702380D01*
X102500000Y-129702380D01*
X102404761Y-129654761D01*
X102357142Y-129559523D01*
X102357142Y-129178571D01*
X102404761Y-129083333D01*
X102500000Y-129035714D01*
X102690476Y-129035714D01*
X102785714Y-129083333D01*
X102833333Y-129178571D01*
X102833333Y-129273809D01*
X102357142Y-129369047D01*
X103690476Y-129702380D02*
X103690476Y-128702380D01*
X103690476Y-129654761D02*
X103595238Y-129702380D01*
X103404761Y-129702380D01*
X103309523Y-129654761D01*
X103261904Y-129607142D01*
X103214285Y-129511904D01*
X103214285Y-129226190D01*
X103261904Y-129130952D01*
X103309523Y-129083333D01*
X103404761Y-129035714D01*
X103595238Y-129035714D01*
X103690476Y-129083333D01*
%TO.C,J111*%
X90114285Y-114452380D02*
X90114285Y-115166666D01*
X90066666Y-115309523D01*
X89971428Y-115404761D01*
X89828571Y-115452380D01*
X89733333Y-115452380D01*
X91114285Y-115452380D02*
X90542857Y-115452380D01*
X90828571Y-115452380D02*
X90828571Y-114452380D01*
X90733333Y-114595238D01*
X90638095Y-114690476D01*
X90542857Y-114738095D01*
X92066666Y-115452380D02*
X91495238Y-115452380D01*
X91780952Y-115452380D02*
X91780952Y-114452380D01*
X91685714Y-114595238D01*
X91590476Y-114690476D01*
X91495238Y-114738095D01*
X93019047Y-115452380D02*
X92447619Y-115452380D01*
X92733333Y-115452380D02*
X92733333Y-114452380D01*
X92638095Y-114595238D01*
X92542857Y-114690476D01*
X92447619Y-114738095D01*
X89919047Y-113052380D02*
X90109523Y-113052380D01*
X90204761Y-113100000D01*
X90300000Y-113195238D01*
X90347619Y-113385714D01*
X90347619Y-113719047D01*
X90300000Y-113909523D01*
X90204761Y-114004761D01*
X90109523Y-114052380D01*
X89919047Y-114052380D01*
X89823809Y-114004761D01*
X89728571Y-113909523D01*
X89680952Y-113719047D01*
X89680952Y-113385714D01*
X89728571Y-113195238D01*
X89823809Y-113100000D01*
X89919047Y-113052380D01*
X90776190Y-113385714D02*
X90776190Y-114052380D01*
X90776190Y-113480952D02*
X90823809Y-113433333D01*
X90919047Y-113385714D01*
X91061904Y-113385714D01*
X91157142Y-113433333D01*
X91204761Y-113528571D01*
X91204761Y-114052380D01*
X91871428Y-113052380D02*
X92061904Y-113052380D01*
X92157142Y-113100000D01*
X92252380Y-113195238D01*
X92300000Y-113385714D01*
X92300000Y-113719047D01*
X92252380Y-113909523D01*
X92157142Y-114004761D01*
X92061904Y-114052380D01*
X91871428Y-114052380D01*
X91776190Y-114004761D01*
X91680952Y-113909523D01*
X91633333Y-113719047D01*
X91633333Y-113385714D01*
X91680952Y-113195238D01*
X91776190Y-113100000D01*
X91871428Y-113052380D01*
X92585714Y-113385714D02*
X92966666Y-113385714D01*
X92728571Y-114052380D02*
X92728571Y-113195238D01*
X92776190Y-113100000D01*
X92871428Y-113052380D01*
X92966666Y-113052380D01*
X93157142Y-113385714D02*
X93538095Y-113385714D01*
X93300000Y-114052380D02*
X93300000Y-113195238D01*
X93347619Y-113100000D01*
X93442857Y-113052380D01*
X93538095Y-113052380D01*
X94204761Y-113528571D02*
X94347619Y-113576190D01*
X94395238Y-113623809D01*
X94442857Y-113719047D01*
X94442857Y-113861904D01*
X94395238Y-113957142D01*
X94347619Y-114004761D01*
X94252380Y-114052380D01*
X93871428Y-114052380D01*
X93871428Y-113052380D01*
X94204761Y-113052380D01*
X94300000Y-113100000D01*
X94347619Y-113147619D01*
X94395238Y-113242857D01*
X94395238Y-113338095D01*
X94347619Y-113433333D01*
X94300000Y-113480952D01*
X94204761Y-113528571D01*
X93871428Y-113528571D01*
X94728571Y-113385714D02*
X95109523Y-113385714D01*
X94871428Y-113052380D02*
X94871428Y-113909523D01*
X94919047Y-114004761D01*
X95014285Y-114052380D01*
X95109523Y-114052380D01*
X95442857Y-113385714D02*
X95442857Y-114052380D01*
X95442857Y-113480952D02*
X95490476Y-113433333D01*
X95585714Y-113385714D01*
X95728571Y-113385714D01*
X95823809Y-113433333D01*
X95871428Y-113528571D01*
X95871428Y-114052380D01*
%TO.C,J110*%
X90114285Y-106852380D02*
X90114285Y-107566666D01*
X90066666Y-107709523D01*
X89971428Y-107804761D01*
X89828571Y-107852380D01*
X89733333Y-107852380D01*
X91114285Y-107852380D02*
X90542857Y-107852380D01*
X90828571Y-107852380D02*
X90828571Y-106852380D01*
X90733333Y-106995238D01*
X90638095Y-107090476D01*
X90542857Y-107138095D01*
X92066666Y-107852380D02*
X91495238Y-107852380D01*
X91780952Y-107852380D02*
X91780952Y-106852380D01*
X91685714Y-106995238D01*
X91590476Y-107090476D01*
X91495238Y-107138095D01*
X92685714Y-106852380D02*
X92780952Y-106852380D01*
X92876190Y-106900000D01*
X92923809Y-106947619D01*
X92971428Y-107042857D01*
X93019047Y-107233333D01*
X93019047Y-107471428D01*
X92971428Y-107661904D01*
X92923809Y-107757142D01*
X92876190Y-107804761D01*
X92780952Y-107852380D01*
X92685714Y-107852380D01*
X92590476Y-107804761D01*
X92542857Y-107757142D01*
X92495238Y-107661904D01*
X92447619Y-107471428D01*
X92447619Y-107233333D01*
X92495238Y-107042857D01*
X92542857Y-106947619D01*
X92590476Y-106900000D01*
X92685714Y-106852380D01*
X90071428Y-105452380D02*
X90261904Y-105452380D01*
X90357142Y-105500000D01*
X90452380Y-105595238D01*
X90500000Y-105785714D01*
X90500000Y-106119047D01*
X90452380Y-106309523D01*
X90357142Y-106404761D01*
X90261904Y-106452380D01*
X90071428Y-106452380D01*
X89976190Y-106404761D01*
X89880952Y-106309523D01*
X89833333Y-106119047D01*
X89833333Y-105785714D01*
X89880952Y-105595238D01*
X89976190Y-105500000D01*
X90071428Y-105452380D01*
X90928571Y-105785714D02*
X90928571Y-106452380D01*
X90928571Y-105880952D02*
X90976190Y-105833333D01*
X91071428Y-105785714D01*
X91214285Y-105785714D01*
X91309523Y-105833333D01*
X91357142Y-105928571D01*
X91357142Y-106452380D01*
X92023809Y-105452380D02*
X92214285Y-105452380D01*
X92309523Y-105500000D01*
X92404761Y-105595238D01*
X92452380Y-105785714D01*
X92452380Y-106119047D01*
X92404761Y-106309523D01*
X92309523Y-106404761D01*
X92214285Y-106452380D01*
X92023809Y-106452380D01*
X91928571Y-106404761D01*
X91833333Y-106309523D01*
X91785714Y-106119047D01*
X91785714Y-105785714D01*
X91833333Y-105595238D01*
X91928571Y-105500000D01*
X92023809Y-105452380D01*
X92738095Y-105785714D02*
X93119047Y-105785714D01*
X92880952Y-106452380D02*
X92880952Y-105595238D01*
X92928571Y-105500000D01*
X93023809Y-105452380D01*
X93119047Y-105452380D01*
X93309523Y-105785714D02*
X93690476Y-105785714D01*
X93452380Y-106452380D02*
X93452380Y-105595238D01*
X93500000Y-105500000D01*
X93595238Y-105452380D01*
X93690476Y-105452380D01*
X94500000Y-106452380D02*
X94023809Y-106452380D01*
X94023809Y-105452380D01*
X95214285Y-106404761D02*
X95119047Y-106452380D01*
X94928571Y-106452380D01*
X94833333Y-106404761D01*
X94785714Y-106309523D01*
X94785714Y-105928571D01*
X94833333Y-105833333D01*
X94928571Y-105785714D01*
X95119047Y-105785714D01*
X95214285Y-105833333D01*
X95261904Y-105928571D01*
X95261904Y-106023809D01*
X94785714Y-106119047D01*
X96119047Y-106452380D02*
X96119047Y-105452380D01*
X96119047Y-106404761D02*
X96023809Y-106452380D01*
X95833333Y-106452380D01*
X95738095Y-106404761D01*
X95690476Y-106357142D01*
X95642857Y-106261904D01*
X95642857Y-105976190D01*
X95690476Y-105880952D01*
X95738095Y-105833333D01*
X95833333Y-105785714D01*
X96023809Y-105785714D01*
X96119047Y-105833333D01*
%TO.C,J109*%
X120714285Y-95052380D02*
X120714285Y-95766666D01*
X120666666Y-95909523D01*
X120571428Y-96004761D01*
X120428571Y-96052380D01*
X120333333Y-96052380D01*
X121714285Y-96052380D02*
X121142857Y-96052380D01*
X121428571Y-96052380D02*
X121428571Y-95052380D01*
X121333333Y-95195238D01*
X121238095Y-95290476D01*
X121142857Y-95338095D01*
X122333333Y-95052380D02*
X122428571Y-95052380D01*
X122523809Y-95100000D01*
X122571428Y-95147619D01*
X122619047Y-95242857D01*
X122666666Y-95433333D01*
X122666666Y-95671428D01*
X122619047Y-95861904D01*
X122571428Y-95957142D01*
X122523809Y-96004761D01*
X122428571Y-96052380D01*
X122333333Y-96052380D01*
X122238095Y-96004761D01*
X122190476Y-95957142D01*
X122142857Y-95861904D01*
X122095238Y-95671428D01*
X122095238Y-95433333D01*
X122142857Y-95242857D01*
X122190476Y-95147619D01*
X122238095Y-95100000D01*
X122333333Y-95052380D01*
X123142857Y-96052380D02*
X123333333Y-96052380D01*
X123428571Y-96004761D01*
X123476190Y-95957142D01*
X123571428Y-95814285D01*
X123619047Y-95623809D01*
X123619047Y-95242857D01*
X123571428Y-95147619D01*
X123523809Y-95100000D01*
X123428571Y-95052380D01*
X123238095Y-95052380D01*
X123142857Y-95100000D01*
X123095238Y-95147619D01*
X123047619Y-95242857D01*
X123047619Y-95480952D01*
X123095238Y-95576190D01*
X123142857Y-95623809D01*
X123238095Y-95671428D01*
X123428571Y-95671428D01*
X123523809Y-95623809D01*
X123571428Y-95576190D01*
X123619047Y-95480952D01*
X116038095Y-96852380D02*
X116371428Y-97852380D01*
X116704761Y-96852380D01*
X117180952Y-97852380D02*
X117085714Y-97804761D01*
X117038095Y-97757142D01*
X116990476Y-97661904D01*
X116990476Y-97376190D01*
X117038095Y-97280952D01*
X117085714Y-97233333D01*
X117180952Y-97185714D01*
X117323809Y-97185714D01*
X117419047Y-97233333D01*
X117466666Y-97280952D01*
X117514285Y-97376190D01*
X117514285Y-97661904D01*
X117466666Y-97757142D01*
X117419047Y-97804761D01*
X117323809Y-97852380D01*
X117180952Y-97852380D01*
X118085714Y-97852380D02*
X117990476Y-97804761D01*
X117942857Y-97709523D01*
X117942857Y-96852380D01*
X118466666Y-97852380D02*
X118466666Y-96852380D01*
X118704761Y-96852380D01*
X118847619Y-96900000D01*
X118942857Y-96995238D01*
X118990476Y-97090476D01*
X119038095Y-97280952D01*
X119038095Y-97423809D01*
X118990476Y-97614285D01*
X118942857Y-97709523D01*
X118847619Y-97804761D01*
X118704761Y-97852380D01*
X118466666Y-97852380D01*
X119371428Y-97185714D02*
X119561904Y-97852380D01*
X119752380Y-97376190D01*
X119942857Y-97852380D01*
X120133333Y-97185714D01*
X120514285Y-97185714D02*
X120514285Y-97852380D01*
X120514285Y-97280952D02*
X120561904Y-97233333D01*
X120657142Y-97185714D01*
X120800000Y-97185714D01*
X120895238Y-97233333D01*
X120942857Y-97328571D01*
X120942857Y-97852380D01*
X121752380Y-97328571D02*
X121895238Y-97376190D01*
X121942857Y-97423809D01*
X121990476Y-97519047D01*
X121990476Y-97661904D01*
X121942857Y-97757142D01*
X121895238Y-97804761D01*
X121800000Y-97852380D01*
X121419047Y-97852380D01*
X121419047Y-96852380D01*
X121752380Y-96852380D01*
X121847619Y-96900000D01*
X121895238Y-96947619D01*
X121942857Y-97042857D01*
X121942857Y-97138095D01*
X121895238Y-97233333D01*
X121847619Y-97280952D01*
X121752380Y-97328571D01*
X121419047Y-97328571D01*
X122276190Y-97185714D02*
X122657142Y-97185714D01*
X122419047Y-96852380D02*
X122419047Y-97709523D01*
X122466666Y-97804761D01*
X122561904Y-97852380D01*
X122657142Y-97852380D01*
X122990476Y-97185714D02*
X122990476Y-97852380D01*
X122990476Y-97280952D02*
X123038095Y-97233333D01*
X123133333Y-97185714D01*
X123276190Y-97185714D01*
X123371428Y-97233333D01*
X123419047Y-97328571D01*
X123419047Y-97852380D01*
%TO.C,J108*%
X120714285Y-88052380D02*
X120714285Y-88766666D01*
X120666666Y-88909523D01*
X120571428Y-89004761D01*
X120428571Y-89052380D01*
X120333333Y-89052380D01*
X121714285Y-89052380D02*
X121142857Y-89052380D01*
X121428571Y-89052380D02*
X121428571Y-88052380D01*
X121333333Y-88195238D01*
X121238095Y-88290476D01*
X121142857Y-88338095D01*
X122333333Y-88052380D02*
X122428571Y-88052380D01*
X122523809Y-88100000D01*
X122571428Y-88147619D01*
X122619047Y-88242857D01*
X122666666Y-88433333D01*
X122666666Y-88671428D01*
X122619047Y-88861904D01*
X122571428Y-88957142D01*
X122523809Y-89004761D01*
X122428571Y-89052380D01*
X122333333Y-89052380D01*
X122238095Y-89004761D01*
X122190476Y-88957142D01*
X122142857Y-88861904D01*
X122095238Y-88671428D01*
X122095238Y-88433333D01*
X122142857Y-88242857D01*
X122190476Y-88147619D01*
X122238095Y-88100000D01*
X122333333Y-88052380D01*
X123238095Y-88480952D02*
X123142857Y-88433333D01*
X123095238Y-88385714D01*
X123047619Y-88290476D01*
X123047619Y-88242857D01*
X123095238Y-88147619D01*
X123142857Y-88100000D01*
X123238095Y-88052380D01*
X123428571Y-88052380D01*
X123523809Y-88100000D01*
X123571428Y-88147619D01*
X123619047Y-88242857D01*
X123619047Y-88290476D01*
X123571428Y-88385714D01*
X123523809Y-88433333D01*
X123428571Y-88480952D01*
X123238095Y-88480952D01*
X123142857Y-88528571D01*
X123095238Y-88576190D01*
X123047619Y-88671428D01*
X123047619Y-88861904D01*
X123095238Y-88957142D01*
X123142857Y-89004761D01*
X123238095Y-89052380D01*
X123428571Y-89052380D01*
X123523809Y-89004761D01*
X123571428Y-88957142D01*
X123619047Y-88861904D01*
X123619047Y-88671428D01*
X123571428Y-88576190D01*
X123523809Y-88528571D01*
X123428571Y-88480952D01*
X115990476Y-90052380D02*
X116323809Y-91052380D01*
X116657142Y-90052380D01*
X117133333Y-91052380D02*
X117038095Y-91004761D01*
X116990476Y-90957142D01*
X116942857Y-90861904D01*
X116942857Y-90576190D01*
X116990476Y-90480952D01*
X117038095Y-90433333D01*
X117133333Y-90385714D01*
X117276190Y-90385714D01*
X117371428Y-90433333D01*
X117419047Y-90480952D01*
X117466666Y-90576190D01*
X117466666Y-90861904D01*
X117419047Y-90957142D01*
X117371428Y-91004761D01*
X117276190Y-91052380D01*
X117133333Y-91052380D01*
X118038095Y-91052380D02*
X117942857Y-91004761D01*
X117895238Y-90909523D01*
X117895238Y-90052380D01*
X118419047Y-91052380D02*
X118419047Y-90052380D01*
X118657142Y-90052380D01*
X118800000Y-90100000D01*
X118895238Y-90195238D01*
X118942857Y-90290476D01*
X118990476Y-90480952D01*
X118990476Y-90623809D01*
X118942857Y-90814285D01*
X118895238Y-90909523D01*
X118800000Y-91004761D01*
X118657142Y-91052380D01*
X118419047Y-91052380D01*
X119323809Y-90385714D02*
X119514285Y-91052380D01*
X119704761Y-90576190D01*
X119895238Y-91052380D01*
X120085714Y-90385714D01*
X120466666Y-90385714D02*
X120466666Y-91052380D01*
X120466666Y-90480952D02*
X120514285Y-90433333D01*
X120609523Y-90385714D01*
X120752380Y-90385714D01*
X120847619Y-90433333D01*
X120895238Y-90528571D01*
X120895238Y-91052380D01*
X121847619Y-91052380D02*
X121371428Y-91052380D01*
X121371428Y-90052380D01*
X122561904Y-91004761D02*
X122466666Y-91052380D01*
X122276190Y-91052380D01*
X122180952Y-91004761D01*
X122133333Y-90909523D01*
X122133333Y-90528571D01*
X122180952Y-90433333D01*
X122276190Y-90385714D01*
X122466666Y-90385714D01*
X122561904Y-90433333D01*
X122609523Y-90528571D01*
X122609523Y-90623809D01*
X122133333Y-90719047D01*
X123466666Y-91052380D02*
X123466666Y-90052380D01*
X123466666Y-91004761D02*
X123371428Y-91052380D01*
X123180952Y-91052380D01*
X123085714Y-91004761D01*
X123038095Y-90957142D01*
X122990476Y-90861904D01*
X122990476Y-90576190D01*
X123038095Y-90480952D01*
X123085714Y-90433333D01*
X123180952Y-90385714D01*
X123371428Y-90385714D01*
X123466666Y-90433333D01*
%TO.C,J107*%
X120914285Y-109652380D02*
X120914285Y-110366666D01*
X120866666Y-110509523D01*
X120771428Y-110604761D01*
X120628571Y-110652380D01*
X120533333Y-110652380D01*
X121914285Y-110652380D02*
X121342857Y-110652380D01*
X121628571Y-110652380D02*
X121628571Y-109652380D01*
X121533333Y-109795238D01*
X121438095Y-109890476D01*
X121342857Y-109938095D01*
X122533333Y-109652380D02*
X122628571Y-109652380D01*
X122723809Y-109700000D01*
X122771428Y-109747619D01*
X122819047Y-109842857D01*
X122866666Y-110033333D01*
X122866666Y-110271428D01*
X122819047Y-110461904D01*
X122771428Y-110557142D01*
X122723809Y-110604761D01*
X122628571Y-110652380D01*
X122533333Y-110652380D01*
X122438095Y-110604761D01*
X122390476Y-110557142D01*
X122342857Y-110461904D01*
X122295238Y-110271428D01*
X122295238Y-110033333D01*
X122342857Y-109842857D01*
X122390476Y-109747619D01*
X122438095Y-109700000D01*
X122533333Y-109652380D01*
X123200000Y-109652380D02*
X123866666Y-109652380D01*
X123438095Y-110652380D01*
X117538095Y-111052380D02*
X117871428Y-112052380D01*
X118204761Y-111052380D01*
X118680952Y-112052380D02*
X118585714Y-112004761D01*
X118538095Y-111957142D01*
X118490476Y-111861904D01*
X118490476Y-111576190D01*
X118538095Y-111480952D01*
X118585714Y-111433333D01*
X118680952Y-111385714D01*
X118823809Y-111385714D01*
X118919047Y-111433333D01*
X118966666Y-111480952D01*
X119014285Y-111576190D01*
X119014285Y-111861904D01*
X118966666Y-111957142D01*
X118919047Y-112004761D01*
X118823809Y-112052380D01*
X118680952Y-112052380D01*
X119585714Y-112052380D02*
X119490476Y-112004761D01*
X119442857Y-111909523D01*
X119442857Y-111052380D01*
X119966666Y-111052380D02*
X119966666Y-111861904D01*
X120014285Y-111957142D01*
X120061904Y-112004761D01*
X120157142Y-112052380D01*
X120347619Y-112052380D01*
X120442857Y-112004761D01*
X120490476Y-111957142D01*
X120538095Y-111861904D01*
X120538095Y-111052380D01*
X121014285Y-111385714D02*
X121014285Y-112385714D01*
X121014285Y-111433333D02*
X121109523Y-111385714D01*
X121300000Y-111385714D01*
X121395238Y-111433333D01*
X121442857Y-111480952D01*
X121490476Y-111576190D01*
X121490476Y-111861904D01*
X121442857Y-111957142D01*
X121395238Y-112004761D01*
X121300000Y-112052380D01*
X121109523Y-112052380D01*
X121014285Y-112004761D01*
X122252380Y-111528571D02*
X122395238Y-111576190D01*
X122442857Y-111623809D01*
X122490476Y-111719047D01*
X122490476Y-111861904D01*
X122442857Y-111957142D01*
X122395238Y-112004761D01*
X122300000Y-112052380D01*
X121919047Y-112052380D01*
X121919047Y-111052380D01*
X122252380Y-111052380D01*
X122347619Y-111100000D01*
X122395238Y-111147619D01*
X122442857Y-111242857D01*
X122442857Y-111338095D01*
X122395238Y-111433333D01*
X122347619Y-111480952D01*
X122252380Y-111528571D01*
X121919047Y-111528571D01*
X122776190Y-111385714D02*
X123157142Y-111385714D01*
X122919047Y-111052380D02*
X122919047Y-111909523D01*
X122966666Y-112004761D01*
X123061904Y-112052380D01*
X123157142Y-112052380D01*
X123490476Y-111385714D02*
X123490476Y-112052380D01*
X123490476Y-111480952D02*
X123538095Y-111433333D01*
X123633333Y-111385714D01*
X123776190Y-111385714D01*
X123871428Y-111433333D01*
X123919047Y-111528571D01*
X123919047Y-112052380D01*
%TO.C,J106*%
X120514285Y-102852380D02*
X120514285Y-103566666D01*
X120466666Y-103709523D01*
X120371428Y-103804761D01*
X120228571Y-103852380D01*
X120133333Y-103852380D01*
X121514285Y-103852380D02*
X120942857Y-103852380D01*
X121228571Y-103852380D02*
X121228571Y-102852380D01*
X121133333Y-102995238D01*
X121038095Y-103090476D01*
X120942857Y-103138095D01*
X122133333Y-102852380D02*
X122228571Y-102852380D01*
X122323809Y-102900000D01*
X122371428Y-102947619D01*
X122419047Y-103042857D01*
X122466666Y-103233333D01*
X122466666Y-103471428D01*
X122419047Y-103661904D01*
X122371428Y-103757142D01*
X122323809Y-103804761D01*
X122228571Y-103852380D01*
X122133333Y-103852380D01*
X122038095Y-103804761D01*
X121990476Y-103757142D01*
X121942857Y-103661904D01*
X121895238Y-103471428D01*
X121895238Y-103233333D01*
X121942857Y-103042857D01*
X121990476Y-102947619D01*
X122038095Y-102900000D01*
X122133333Y-102852380D01*
X123323809Y-102852380D02*
X123133333Y-102852380D01*
X123038095Y-102900000D01*
X122990476Y-102947619D01*
X122895238Y-103090476D01*
X122847619Y-103280952D01*
X122847619Y-103661904D01*
X122895238Y-103757142D01*
X122942857Y-103804761D01*
X123038095Y-103852380D01*
X123228571Y-103852380D01*
X123323809Y-103804761D01*
X123371428Y-103757142D01*
X123419047Y-103661904D01*
X123419047Y-103423809D01*
X123371428Y-103328571D01*
X123323809Y-103280952D01*
X123228571Y-103233333D01*
X123038095Y-103233333D01*
X122942857Y-103280952D01*
X122895238Y-103328571D01*
X122847619Y-103423809D01*
X117090476Y-104252380D02*
X117423809Y-105252380D01*
X117757142Y-104252380D01*
X118233333Y-105252380D02*
X118138095Y-105204761D01*
X118090476Y-105157142D01*
X118042857Y-105061904D01*
X118042857Y-104776190D01*
X118090476Y-104680952D01*
X118138095Y-104633333D01*
X118233333Y-104585714D01*
X118376190Y-104585714D01*
X118471428Y-104633333D01*
X118519047Y-104680952D01*
X118566666Y-104776190D01*
X118566666Y-105061904D01*
X118519047Y-105157142D01*
X118471428Y-105204761D01*
X118376190Y-105252380D01*
X118233333Y-105252380D01*
X119138095Y-105252380D02*
X119042857Y-105204761D01*
X118995238Y-105109523D01*
X118995238Y-104252380D01*
X119519047Y-104252380D02*
X119519047Y-105061904D01*
X119566666Y-105157142D01*
X119614285Y-105204761D01*
X119709523Y-105252380D01*
X119900000Y-105252380D01*
X119995238Y-105204761D01*
X120042857Y-105157142D01*
X120090476Y-105061904D01*
X120090476Y-104252380D01*
X120566666Y-104585714D02*
X120566666Y-105585714D01*
X120566666Y-104633333D02*
X120661904Y-104585714D01*
X120852380Y-104585714D01*
X120947619Y-104633333D01*
X120995238Y-104680952D01*
X121042857Y-104776190D01*
X121042857Y-105061904D01*
X120995238Y-105157142D01*
X120947619Y-105204761D01*
X120852380Y-105252380D01*
X120661904Y-105252380D01*
X120566666Y-105204761D01*
X121947619Y-105252380D02*
X121471428Y-105252380D01*
X121471428Y-104252380D01*
X122661904Y-105204761D02*
X122566666Y-105252380D01*
X122376190Y-105252380D01*
X122280952Y-105204761D01*
X122233333Y-105109523D01*
X122233333Y-104728571D01*
X122280952Y-104633333D01*
X122376190Y-104585714D01*
X122566666Y-104585714D01*
X122661904Y-104633333D01*
X122709523Y-104728571D01*
X122709523Y-104823809D01*
X122233333Y-104919047D01*
X123566666Y-105252380D02*
X123566666Y-104252380D01*
X123566666Y-105204761D02*
X123471428Y-105252380D01*
X123280952Y-105252380D01*
X123185714Y-105204761D01*
X123138095Y-105157142D01*
X123090476Y-105061904D01*
X123090476Y-104776190D01*
X123138095Y-104680952D01*
X123185714Y-104633333D01*
X123280952Y-104585714D01*
X123471428Y-104585714D01*
X123566666Y-104633333D01*
%TO.C,J105*%
X90114285Y-128652380D02*
X90114285Y-129366666D01*
X90066666Y-129509523D01*
X89971428Y-129604761D01*
X89828571Y-129652380D01*
X89733333Y-129652380D01*
X91114285Y-129652380D02*
X90542857Y-129652380D01*
X90828571Y-129652380D02*
X90828571Y-128652380D01*
X90733333Y-128795238D01*
X90638095Y-128890476D01*
X90542857Y-128938095D01*
X91733333Y-128652380D02*
X91828571Y-128652380D01*
X91923809Y-128700000D01*
X91971428Y-128747619D01*
X92019047Y-128842857D01*
X92066666Y-129033333D01*
X92066666Y-129271428D01*
X92019047Y-129461904D01*
X91971428Y-129557142D01*
X91923809Y-129604761D01*
X91828571Y-129652380D01*
X91733333Y-129652380D01*
X91638095Y-129604761D01*
X91590476Y-129557142D01*
X91542857Y-129461904D01*
X91495238Y-129271428D01*
X91495238Y-129033333D01*
X91542857Y-128842857D01*
X91590476Y-128747619D01*
X91638095Y-128700000D01*
X91733333Y-128652380D01*
X92971428Y-128652380D02*
X92495238Y-128652380D01*
X92447619Y-129128571D01*
X92495238Y-129080952D01*
X92590476Y-129033333D01*
X92828571Y-129033333D01*
X92923809Y-129080952D01*
X92971428Y-129128571D01*
X93019047Y-129223809D01*
X93019047Y-129461904D01*
X92971428Y-129557142D01*
X92923809Y-129604761D01*
X92828571Y-129652380D01*
X92590476Y-129652380D01*
X92495238Y-129604761D01*
X92447619Y-129557142D01*
X89804761Y-128252380D02*
X89804761Y-127252380D01*
X90185714Y-127252380D01*
X90280952Y-127300000D01*
X90328571Y-127347619D01*
X90376190Y-127442857D01*
X90376190Y-127585714D01*
X90328571Y-127680952D01*
X90280952Y-127728571D01*
X90185714Y-127776190D01*
X89804761Y-127776190D01*
X90947619Y-128252380D02*
X90852380Y-128204761D01*
X90804761Y-128109523D01*
X90804761Y-127252380D01*
X91757142Y-128252380D02*
X91757142Y-127728571D01*
X91709523Y-127633333D01*
X91614285Y-127585714D01*
X91423809Y-127585714D01*
X91328571Y-127633333D01*
X91757142Y-128204761D02*
X91661904Y-128252380D01*
X91423809Y-128252380D01*
X91328571Y-128204761D01*
X91280952Y-128109523D01*
X91280952Y-128014285D01*
X91328571Y-127919047D01*
X91423809Y-127871428D01*
X91661904Y-127871428D01*
X91757142Y-127823809D01*
X92138095Y-127585714D02*
X92376190Y-128252380D01*
X92614285Y-127585714D02*
X92376190Y-128252380D01*
X92280952Y-128490476D01*
X92233333Y-128538095D01*
X92138095Y-128585714D01*
X93328571Y-127728571D02*
X93471428Y-127776190D01*
X93519047Y-127823809D01*
X93566666Y-127919047D01*
X93566666Y-128061904D01*
X93519047Y-128157142D01*
X93471428Y-128204761D01*
X93376190Y-128252380D01*
X92995238Y-128252380D01*
X92995238Y-127252380D01*
X93328571Y-127252380D01*
X93423809Y-127300000D01*
X93471428Y-127347619D01*
X93519047Y-127442857D01*
X93519047Y-127538095D01*
X93471428Y-127633333D01*
X93423809Y-127680952D01*
X93328571Y-127728571D01*
X92995238Y-127728571D01*
X93852380Y-127585714D02*
X94233333Y-127585714D01*
X93995238Y-127252380D02*
X93995238Y-128109523D01*
X94042857Y-128204761D01*
X94138095Y-128252380D01*
X94233333Y-128252380D01*
X94566666Y-127585714D02*
X94566666Y-128252380D01*
X94566666Y-127680952D02*
X94614285Y-127633333D01*
X94709523Y-127585714D01*
X94852380Y-127585714D01*
X94947619Y-127633333D01*
X94995238Y-127728571D01*
X94995238Y-128252380D01*
%TO.C,J104*%
X90314285Y-121452380D02*
X90314285Y-122166666D01*
X90266666Y-122309523D01*
X90171428Y-122404761D01*
X90028571Y-122452380D01*
X89933333Y-122452380D01*
X91314285Y-122452380D02*
X90742857Y-122452380D01*
X91028571Y-122452380D02*
X91028571Y-121452380D01*
X90933333Y-121595238D01*
X90838095Y-121690476D01*
X90742857Y-121738095D01*
X91933333Y-121452380D02*
X92028571Y-121452380D01*
X92123809Y-121500000D01*
X92171428Y-121547619D01*
X92219047Y-121642857D01*
X92266666Y-121833333D01*
X92266666Y-122071428D01*
X92219047Y-122261904D01*
X92171428Y-122357142D01*
X92123809Y-122404761D01*
X92028571Y-122452380D01*
X91933333Y-122452380D01*
X91838095Y-122404761D01*
X91790476Y-122357142D01*
X91742857Y-122261904D01*
X91695238Y-122071428D01*
X91695238Y-121833333D01*
X91742857Y-121642857D01*
X91790476Y-121547619D01*
X91838095Y-121500000D01*
X91933333Y-121452380D01*
X93123809Y-121785714D02*
X93123809Y-122452380D01*
X92885714Y-121404761D02*
X92647619Y-122119047D01*
X93266666Y-122119047D01*
X89957142Y-121052380D02*
X89957142Y-120052380D01*
X90338095Y-120052380D01*
X90433333Y-120100000D01*
X90480952Y-120147619D01*
X90528571Y-120242857D01*
X90528571Y-120385714D01*
X90480952Y-120480952D01*
X90433333Y-120528571D01*
X90338095Y-120576190D01*
X89957142Y-120576190D01*
X91100000Y-121052380D02*
X91004761Y-121004761D01*
X90957142Y-120909523D01*
X90957142Y-120052380D01*
X91909523Y-121052380D02*
X91909523Y-120528571D01*
X91861904Y-120433333D01*
X91766666Y-120385714D01*
X91576190Y-120385714D01*
X91480952Y-120433333D01*
X91909523Y-121004761D02*
X91814285Y-121052380D01*
X91576190Y-121052380D01*
X91480952Y-121004761D01*
X91433333Y-120909523D01*
X91433333Y-120814285D01*
X91480952Y-120719047D01*
X91576190Y-120671428D01*
X91814285Y-120671428D01*
X91909523Y-120623809D01*
X92290476Y-120385714D02*
X92528571Y-121052380D01*
X92766666Y-120385714D02*
X92528571Y-121052380D01*
X92433333Y-121290476D01*
X92385714Y-121338095D01*
X92290476Y-121385714D01*
X93623809Y-121052380D02*
X93147619Y-121052380D01*
X93147619Y-120052380D01*
X94338095Y-121004761D02*
X94242857Y-121052380D01*
X94052380Y-121052380D01*
X93957142Y-121004761D01*
X93909523Y-120909523D01*
X93909523Y-120528571D01*
X93957142Y-120433333D01*
X94052380Y-120385714D01*
X94242857Y-120385714D01*
X94338095Y-120433333D01*
X94385714Y-120528571D01*
X94385714Y-120623809D01*
X93909523Y-120719047D01*
X95242857Y-121052380D02*
X95242857Y-120052380D01*
X95242857Y-121004761D02*
X95147619Y-121052380D01*
X94957142Y-121052380D01*
X94861904Y-121004761D01*
X94814285Y-120957142D01*
X94766666Y-120861904D01*
X94766666Y-120576190D01*
X94814285Y-120480952D01*
X94861904Y-120433333D01*
X94957142Y-120385714D01*
X95147619Y-120385714D01*
X95242857Y-120433333D01*
%TO.C,J102*%
X111234285Y-89204880D02*
X111234285Y-89919166D01*
X111186666Y-90062023D01*
X111091428Y-90157261D01*
X110948571Y-90204880D01*
X110853333Y-90204880D01*
X112234285Y-90204880D02*
X111662857Y-90204880D01*
X111948571Y-90204880D02*
X111948571Y-89204880D01*
X111853333Y-89347738D01*
X111758095Y-89442976D01*
X111662857Y-89490595D01*
X112853333Y-89204880D02*
X112948571Y-89204880D01*
X113043809Y-89252500D01*
X113091428Y-89300119D01*
X113139047Y-89395357D01*
X113186666Y-89585833D01*
X113186666Y-89823928D01*
X113139047Y-90014404D01*
X113091428Y-90109642D01*
X113043809Y-90157261D01*
X112948571Y-90204880D01*
X112853333Y-90204880D01*
X112758095Y-90157261D01*
X112710476Y-90109642D01*
X112662857Y-90014404D01*
X112615238Y-89823928D01*
X112615238Y-89585833D01*
X112662857Y-89395357D01*
X112710476Y-89300119D01*
X112758095Y-89252500D01*
X112853333Y-89204880D01*
X113567619Y-89300119D02*
X113615238Y-89252500D01*
X113710476Y-89204880D01*
X113948571Y-89204880D01*
X114043809Y-89252500D01*
X114091428Y-89300119D01*
X114139047Y-89395357D01*
X114139047Y-89490595D01*
X114091428Y-89633452D01*
X113520000Y-90204880D01*
X114139047Y-90204880D01*
X94653333Y-90004880D02*
X94320000Y-89528690D01*
X94081904Y-90004880D02*
X94081904Y-89004880D01*
X94462857Y-89004880D01*
X94558095Y-89052500D01*
X94605714Y-89100119D01*
X94653333Y-89195357D01*
X94653333Y-89338214D01*
X94605714Y-89433452D01*
X94558095Y-89481071D01*
X94462857Y-89528690D01*
X94081904Y-89528690D01*
X95415238Y-89481071D02*
X95081904Y-89481071D01*
X95081904Y-90004880D02*
X95081904Y-89004880D01*
X95558095Y-89004880D01*
X95939047Y-90004880D02*
X95939047Y-89004880D01*
X96415238Y-90004880D02*
X96415238Y-89004880D01*
X96653333Y-89004880D01*
X96796190Y-89052500D01*
X96891428Y-89147738D01*
X96939047Y-89242976D01*
X96986666Y-89433452D01*
X96986666Y-89576309D01*
X96939047Y-89766785D01*
X96891428Y-89862023D01*
X96796190Y-89957261D01*
X96653333Y-90004880D01*
X96415238Y-90004880D01*
X97177142Y-90100119D02*
X97939047Y-90100119D01*
X98748571Y-90004880D02*
X98415238Y-89528690D01*
X98177142Y-90004880D02*
X98177142Y-89004880D01*
X98558095Y-89004880D01*
X98653333Y-89052500D01*
X98700952Y-89100119D01*
X98748571Y-89195357D01*
X98748571Y-89338214D01*
X98700952Y-89433452D01*
X98653333Y-89481071D01*
X98558095Y-89528690D01*
X98177142Y-89528690D01*
X99748571Y-89909642D02*
X99700952Y-89957261D01*
X99558095Y-90004880D01*
X99462857Y-90004880D01*
X99320000Y-89957261D01*
X99224761Y-89862023D01*
X99177142Y-89766785D01*
X99129523Y-89576309D01*
X99129523Y-89433452D01*
X99177142Y-89242976D01*
X99224761Y-89147738D01*
X99320000Y-89052500D01*
X99462857Y-89004880D01*
X99558095Y-89004880D01*
X99700952Y-89052500D01*
X99748571Y-89100119D01*
X100653333Y-89004880D02*
X100177142Y-89004880D01*
X100129523Y-89481071D01*
X100177142Y-89433452D01*
X100272380Y-89385833D01*
X100510476Y-89385833D01*
X100605714Y-89433452D01*
X100653333Y-89481071D01*
X100700952Y-89576309D01*
X100700952Y-89814404D01*
X100653333Y-89909642D01*
X100605714Y-89957261D01*
X100510476Y-90004880D01*
X100272380Y-90004880D01*
X100177142Y-89957261D01*
X100129523Y-89909642D01*
X101081904Y-89100119D02*
X101129523Y-89052500D01*
X101224761Y-89004880D01*
X101462857Y-89004880D01*
X101558095Y-89052500D01*
X101605714Y-89100119D01*
X101653333Y-89195357D01*
X101653333Y-89290595D01*
X101605714Y-89433452D01*
X101034285Y-90004880D01*
X101653333Y-90004880D01*
X102034285Y-89100119D02*
X102081904Y-89052500D01*
X102177142Y-89004880D01*
X102415238Y-89004880D01*
X102510476Y-89052500D01*
X102558095Y-89100119D01*
X102605714Y-89195357D01*
X102605714Y-89290595D01*
X102558095Y-89433452D01*
X101986666Y-90004880D01*
X102605714Y-90004880D01*
%TO.C,R116*%
X123852380Y-118919047D02*
X123376190Y-119252380D01*
X123852380Y-119490476D02*
X122852380Y-119490476D01*
X122852380Y-119109523D01*
X122900000Y-119014285D01*
X122947619Y-118966666D01*
X123042857Y-118919047D01*
X123185714Y-118919047D01*
X123280952Y-118966666D01*
X123328571Y-119014285D01*
X123376190Y-119109523D01*
X123376190Y-119490476D01*
X123852380Y-117966666D02*
X123852380Y-118538095D01*
X123852380Y-118252380D02*
X122852380Y-118252380D01*
X122995238Y-118347619D01*
X123090476Y-118442857D01*
X123138095Y-118538095D01*
X123852380Y-117014285D02*
X123852380Y-117585714D01*
X123852380Y-117300000D02*
X122852380Y-117300000D01*
X122995238Y-117395238D01*
X123090476Y-117490476D01*
X123138095Y-117585714D01*
X122852380Y-116157142D02*
X122852380Y-116347619D01*
X122900000Y-116442857D01*
X122947619Y-116490476D01*
X123090476Y-116585714D01*
X123280952Y-116633333D01*
X123661904Y-116633333D01*
X123757142Y-116585714D01*
X123804761Y-116538095D01*
X123852380Y-116442857D01*
X123852380Y-116252380D01*
X123804761Y-116157142D01*
X123757142Y-116109523D01*
X123661904Y-116061904D01*
X123423809Y-116061904D01*
X123328571Y-116109523D01*
X123280952Y-116157142D01*
X123233333Y-116252380D01*
X123233333Y-116442857D01*
X123280952Y-116538095D01*
X123328571Y-116585714D01*
X123423809Y-116633333D01*
%TO.C,R115*%
X128452380Y-119319047D02*
X127976190Y-119652380D01*
X128452380Y-119890476D02*
X127452380Y-119890476D01*
X127452380Y-119509523D01*
X127500000Y-119414285D01*
X127547619Y-119366666D01*
X127642857Y-119319047D01*
X127785714Y-119319047D01*
X127880952Y-119366666D01*
X127928571Y-119414285D01*
X127976190Y-119509523D01*
X127976190Y-119890476D01*
X128452380Y-118366666D02*
X128452380Y-118938095D01*
X128452380Y-118652380D02*
X127452380Y-118652380D01*
X127595238Y-118747619D01*
X127690476Y-118842857D01*
X127738095Y-118938095D01*
X128452380Y-117414285D02*
X128452380Y-117985714D01*
X128452380Y-117700000D02*
X127452380Y-117700000D01*
X127595238Y-117795238D01*
X127690476Y-117890476D01*
X127738095Y-117985714D01*
X127452380Y-116509523D02*
X127452380Y-116985714D01*
X127928571Y-117033333D01*
X127880952Y-116985714D01*
X127833333Y-116890476D01*
X127833333Y-116652380D01*
X127880952Y-116557142D01*
X127928571Y-116509523D01*
X128023809Y-116461904D01*
X128261904Y-116461904D01*
X128357142Y-116509523D01*
X128404761Y-116557142D01*
X128452380Y-116652380D01*
X128452380Y-116890476D01*
X128404761Y-116985714D01*
X128357142Y-117033333D01*
%TO.C,R114*%
X115252380Y-115519047D02*
X114776190Y-115852380D01*
X115252380Y-116090476D02*
X114252380Y-116090476D01*
X114252380Y-115709523D01*
X114300000Y-115614285D01*
X114347619Y-115566666D01*
X114442857Y-115519047D01*
X114585714Y-115519047D01*
X114680952Y-115566666D01*
X114728571Y-115614285D01*
X114776190Y-115709523D01*
X114776190Y-116090476D01*
X115252380Y-114566666D02*
X115252380Y-115138095D01*
X115252380Y-114852380D02*
X114252380Y-114852380D01*
X114395238Y-114947619D01*
X114490476Y-115042857D01*
X114538095Y-115138095D01*
X115252380Y-113614285D02*
X115252380Y-114185714D01*
X115252380Y-113900000D02*
X114252380Y-113900000D01*
X114395238Y-113995238D01*
X114490476Y-114090476D01*
X114538095Y-114185714D01*
X114585714Y-112757142D02*
X115252380Y-112757142D01*
X114204761Y-112995238D02*
X114919047Y-113233333D01*
X114919047Y-112614285D01*
%TO.C,R113*%
X107852380Y-115719047D02*
X107376190Y-116052380D01*
X107852380Y-116290476D02*
X106852380Y-116290476D01*
X106852380Y-115909523D01*
X106900000Y-115814285D01*
X106947619Y-115766666D01*
X107042857Y-115719047D01*
X107185714Y-115719047D01*
X107280952Y-115766666D01*
X107328571Y-115814285D01*
X107376190Y-115909523D01*
X107376190Y-116290476D01*
X107852380Y-114766666D02*
X107852380Y-115338095D01*
X107852380Y-115052380D02*
X106852380Y-115052380D01*
X106995238Y-115147619D01*
X107090476Y-115242857D01*
X107138095Y-115338095D01*
X107852380Y-113814285D02*
X107852380Y-114385714D01*
X107852380Y-114100000D02*
X106852380Y-114100000D01*
X106995238Y-114195238D01*
X107090476Y-114290476D01*
X107138095Y-114385714D01*
X106852380Y-113480952D02*
X106852380Y-112861904D01*
X107233333Y-113195238D01*
X107233333Y-113052380D01*
X107280952Y-112957142D01*
X107328571Y-112909523D01*
X107423809Y-112861904D01*
X107661904Y-112861904D01*
X107757142Y-112909523D01*
X107804761Y-112957142D01*
X107852380Y-113052380D01*
X107852380Y-113338095D01*
X107804761Y-113433333D01*
X107757142Y-113480952D01*
%TO.C,R112*%
X109452380Y-115719047D02*
X108976190Y-116052380D01*
X109452380Y-116290476D02*
X108452380Y-116290476D01*
X108452380Y-115909523D01*
X108500000Y-115814285D01*
X108547619Y-115766666D01*
X108642857Y-115719047D01*
X108785714Y-115719047D01*
X108880952Y-115766666D01*
X108928571Y-115814285D01*
X108976190Y-115909523D01*
X108976190Y-116290476D01*
X109452380Y-114766666D02*
X109452380Y-115338095D01*
X109452380Y-115052380D02*
X108452380Y-115052380D01*
X108595238Y-115147619D01*
X108690476Y-115242857D01*
X108738095Y-115338095D01*
X109452380Y-113814285D02*
X109452380Y-114385714D01*
X109452380Y-114100000D02*
X108452380Y-114100000D01*
X108595238Y-114195238D01*
X108690476Y-114290476D01*
X108738095Y-114385714D01*
X108547619Y-113433333D02*
X108500000Y-113385714D01*
X108452380Y-113290476D01*
X108452380Y-113052380D01*
X108500000Y-112957142D01*
X108547619Y-112909523D01*
X108642857Y-112861904D01*
X108738095Y-112861904D01*
X108880952Y-112909523D01*
X109452380Y-113480952D01*
X109452380Y-112861904D01*
%TO.C,R111*%
X100452380Y-115719047D02*
X99976190Y-116052380D01*
X100452380Y-116290476D02*
X99452380Y-116290476D01*
X99452380Y-115909523D01*
X99500000Y-115814285D01*
X99547619Y-115766666D01*
X99642857Y-115719047D01*
X99785714Y-115719047D01*
X99880952Y-115766666D01*
X99928571Y-115814285D01*
X99976190Y-115909523D01*
X99976190Y-116290476D01*
X100452380Y-114766666D02*
X100452380Y-115338095D01*
X100452380Y-115052380D02*
X99452380Y-115052380D01*
X99595238Y-115147619D01*
X99690476Y-115242857D01*
X99738095Y-115338095D01*
X100452380Y-113814285D02*
X100452380Y-114385714D01*
X100452380Y-114100000D02*
X99452380Y-114100000D01*
X99595238Y-114195238D01*
X99690476Y-114290476D01*
X99738095Y-114385714D01*
X100452380Y-112861904D02*
X100452380Y-113433333D01*
X100452380Y-113147619D02*
X99452380Y-113147619D01*
X99595238Y-113242857D01*
X99690476Y-113338095D01*
X99738095Y-113433333D01*
%TO.C,R110*%
X93680952Y-104252380D02*
X93347619Y-103776190D01*
X93109523Y-104252380D02*
X93109523Y-103252380D01*
X93490476Y-103252380D01*
X93585714Y-103300000D01*
X93633333Y-103347619D01*
X93680952Y-103442857D01*
X93680952Y-103585714D01*
X93633333Y-103680952D01*
X93585714Y-103728571D01*
X93490476Y-103776190D01*
X93109523Y-103776190D01*
X94633333Y-104252380D02*
X94061904Y-104252380D01*
X94347619Y-104252380D02*
X94347619Y-103252380D01*
X94252380Y-103395238D01*
X94157142Y-103490476D01*
X94061904Y-103538095D01*
X95585714Y-104252380D02*
X95014285Y-104252380D01*
X95300000Y-104252380D02*
X95300000Y-103252380D01*
X95204761Y-103395238D01*
X95109523Y-103490476D01*
X95014285Y-103538095D01*
X96204761Y-103252380D02*
X96300000Y-103252380D01*
X96395238Y-103300000D01*
X96442857Y-103347619D01*
X96490476Y-103442857D01*
X96538095Y-103633333D01*
X96538095Y-103871428D01*
X96490476Y-104061904D01*
X96442857Y-104157142D01*
X96395238Y-104204761D01*
X96300000Y-104252380D01*
X96204761Y-104252380D01*
X96109523Y-104204761D01*
X96061904Y-104157142D01*
X96014285Y-104061904D01*
X95966666Y-103871428D01*
X95966666Y-103633333D01*
X96014285Y-103442857D01*
X96061904Y-103347619D01*
X96109523Y-103300000D01*
X96204761Y-103252380D01*
%TO.C,R109*%
X117280952Y-101652380D02*
X116947619Y-101176190D01*
X116709523Y-101652380D02*
X116709523Y-100652380D01*
X117090476Y-100652380D01*
X117185714Y-100700000D01*
X117233333Y-100747619D01*
X117280952Y-100842857D01*
X117280952Y-100985714D01*
X117233333Y-101080952D01*
X117185714Y-101128571D01*
X117090476Y-101176190D01*
X116709523Y-101176190D01*
X118233333Y-101652380D02*
X117661904Y-101652380D01*
X117947619Y-101652380D02*
X117947619Y-100652380D01*
X117852380Y-100795238D01*
X117757142Y-100890476D01*
X117661904Y-100938095D01*
X118852380Y-100652380D02*
X118947619Y-100652380D01*
X119042857Y-100700000D01*
X119090476Y-100747619D01*
X119138095Y-100842857D01*
X119185714Y-101033333D01*
X119185714Y-101271428D01*
X119138095Y-101461904D01*
X119090476Y-101557142D01*
X119042857Y-101604761D01*
X118947619Y-101652380D01*
X118852380Y-101652380D01*
X118757142Y-101604761D01*
X118709523Y-101557142D01*
X118661904Y-101461904D01*
X118614285Y-101271428D01*
X118614285Y-101033333D01*
X118661904Y-100842857D01*
X118709523Y-100747619D01*
X118757142Y-100700000D01*
X118852380Y-100652380D01*
X119661904Y-101652380D02*
X119852380Y-101652380D01*
X119947619Y-101604761D01*
X119995238Y-101557142D01*
X120090476Y-101414285D01*
X120138095Y-101223809D01*
X120138095Y-100842857D01*
X120090476Y-100747619D01*
X120042857Y-100700000D01*
X119947619Y-100652380D01*
X119757142Y-100652380D01*
X119661904Y-100700000D01*
X119614285Y-100747619D01*
X119566666Y-100842857D01*
X119566666Y-101080952D01*
X119614285Y-101176190D01*
X119661904Y-101223809D01*
X119757142Y-101271428D01*
X119947619Y-101271428D01*
X120042857Y-101223809D01*
X120090476Y-101176190D01*
X120138095Y-101080952D01*
%TO.C,R108*%
X117280952Y-100052380D02*
X116947619Y-99576190D01*
X116709523Y-100052380D02*
X116709523Y-99052380D01*
X117090476Y-99052380D01*
X117185714Y-99100000D01*
X117233333Y-99147619D01*
X117280952Y-99242857D01*
X117280952Y-99385714D01*
X117233333Y-99480952D01*
X117185714Y-99528571D01*
X117090476Y-99576190D01*
X116709523Y-99576190D01*
X118233333Y-100052380D02*
X117661904Y-100052380D01*
X117947619Y-100052380D02*
X117947619Y-99052380D01*
X117852380Y-99195238D01*
X117757142Y-99290476D01*
X117661904Y-99338095D01*
X118852380Y-99052380D02*
X118947619Y-99052380D01*
X119042857Y-99100000D01*
X119090476Y-99147619D01*
X119138095Y-99242857D01*
X119185714Y-99433333D01*
X119185714Y-99671428D01*
X119138095Y-99861904D01*
X119090476Y-99957142D01*
X119042857Y-100004761D01*
X118947619Y-100052380D01*
X118852380Y-100052380D01*
X118757142Y-100004761D01*
X118709523Y-99957142D01*
X118661904Y-99861904D01*
X118614285Y-99671428D01*
X118614285Y-99433333D01*
X118661904Y-99242857D01*
X118709523Y-99147619D01*
X118757142Y-99100000D01*
X118852380Y-99052380D01*
X119757142Y-99480952D02*
X119661904Y-99433333D01*
X119614285Y-99385714D01*
X119566666Y-99290476D01*
X119566666Y-99242857D01*
X119614285Y-99147619D01*
X119661904Y-99100000D01*
X119757142Y-99052380D01*
X119947619Y-99052380D01*
X120042857Y-99100000D01*
X120090476Y-99147619D01*
X120138095Y-99242857D01*
X120138095Y-99290476D01*
X120090476Y-99385714D01*
X120042857Y-99433333D01*
X119947619Y-99480952D01*
X119757142Y-99480952D01*
X119661904Y-99528571D01*
X119614285Y-99576190D01*
X119566666Y-99671428D01*
X119566666Y-99861904D01*
X119614285Y-99957142D01*
X119661904Y-100004761D01*
X119757142Y-100052380D01*
X119947619Y-100052380D01*
X120042857Y-100004761D01*
X120090476Y-99957142D01*
X120138095Y-99861904D01*
X120138095Y-99671428D01*
X120090476Y-99576190D01*
X120042857Y-99528571D01*
X119947619Y-99480952D01*
%TO.C,R107*%
X117280952Y-93052380D02*
X116947619Y-92576190D01*
X116709523Y-93052380D02*
X116709523Y-92052380D01*
X117090476Y-92052380D01*
X117185714Y-92100000D01*
X117233333Y-92147619D01*
X117280952Y-92242857D01*
X117280952Y-92385714D01*
X117233333Y-92480952D01*
X117185714Y-92528571D01*
X117090476Y-92576190D01*
X116709523Y-92576190D01*
X118233333Y-93052380D02*
X117661904Y-93052380D01*
X117947619Y-93052380D02*
X117947619Y-92052380D01*
X117852380Y-92195238D01*
X117757142Y-92290476D01*
X117661904Y-92338095D01*
X118852380Y-92052380D02*
X118947619Y-92052380D01*
X119042857Y-92100000D01*
X119090476Y-92147619D01*
X119138095Y-92242857D01*
X119185714Y-92433333D01*
X119185714Y-92671428D01*
X119138095Y-92861904D01*
X119090476Y-92957142D01*
X119042857Y-93004761D01*
X118947619Y-93052380D01*
X118852380Y-93052380D01*
X118757142Y-93004761D01*
X118709523Y-92957142D01*
X118661904Y-92861904D01*
X118614285Y-92671428D01*
X118614285Y-92433333D01*
X118661904Y-92242857D01*
X118709523Y-92147619D01*
X118757142Y-92100000D01*
X118852380Y-92052380D01*
X119519047Y-92052380D02*
X120185714Y-92052380D01*
X119757142Y-93052380D01*
%TO.C,R106*%
X117655952Y-113852380D02*
X117322619Y-113376190D01*
X117084523Y-113852380D02*
X117084523Y-112852380D01*
X117465476Y-112852380D01*
X117560714Y-112900000D01*
X117608333Y-112947619D01*
X117655952Y-113042857D01*
X117655952Y-113185714D01*
X117608333Y-113280952D01*
X117560714Y-113328571D01*
X117465476Y-113376190D01*
X117084523Y-113376190D01*
X118608333Y-113852380D02*
X118036904Y-113852380D01*
X118322619Y-113852380D02*
X118322619Y-112852380D01*
X118227380Y-112995238D01*
X118132142Y-113090476D01*
X118036904Y-113138095D01*
X119227380Y-112852380D02*
X119322619Y-112852380D01*
X119417857Y-112900000D01*
X119465476Y-112947619D01*
X119513095Y-113042857D01*
X119560714Y-113233333D01*
X119560714Y-113471428D01*
X119513095Y-113661904D01*
X119465476Y-113757142D01*
X119417857Y-113804761D01*
X119322619Y-113852380D01*
X119227380Y-113852380D01*
X119132142Y-113804761D01*
X119084523Y-113757142D01*
X119036904Y-113661904D01*
X118989285Y-113471428D01*
X118989285Y-113233333D01*
X119036904Y-113042857D01*
X119084523Y-112947619D01*
X119132142Y-112900000D01*
X119227380Y-112852380D01*
X120417857Y-112852380D02*
X120227380Y-112852380D01*
X120132142Y-112900000D01*
X120084523Y-112947619D01*
X119989285Y-113090476D01*
X119941666Y-113280952D01*
X119941666Y-113661904D01*
X119989285Y-113757142D01*
X120036904Y-113804761D01*
X120132142Y-113852380D01*
X120322619Y-113852380D01*
X120417857Y-113804761D01*
X120465476Y-113757142D01*
X120513095Y-113661904D01*
X120513095Y-113423809D01*
X120465476Y-113328571D01*
X120417857Y-113280952D01*
X120322619Y-113233333D01*
X120132142Y-113233333D01*
X120036904Y-113280952D01*
X119989285Y-113328571D01*
X119941666Y-113423809D01*
%TO.C,R105*%
X117655952Y-115652380D02*
X117322619Y-115176190D01*
X117084523Y-115652380D02*
X117084523Y-114652380D01*
X117465476Y-114652380D01*
X117560714Y-114700000D01*
X117608333Y-114747619D01*
X117655952Y-114842857D01*
X117655952Y-114985714D01*
X117608333Y-115080952D01*
X117560714Y-115128571D01*
X117465476Y-115176190D01*
X117084523Y-115176190D01*
X118608333Y-115652380D02*
X118036904Y-115652380D01*
X118322619Y-115652380D02*
X118322619Y-114652380D01*
X118227380Y-114795238D01*
X118132142Y-114890476D01*
X118036904Y-114938095D01*
X119227380Y-114652380D02*
X119322619Y-114652380D01*
X119417857Y-114700000D01*
X119465476Y-114747619D01*
X119513095Y-114842857D01*
X119560714Y-115033333D01*
X119560714Y-115271428D01*
X119513095Y-115461904D01*
X119465476Y-115557142D01*
X119417857Y-115604761D01*
X119322619Y-115652380D01*
X119227380Y-115652380D01*
X119132142Y-115604761D01*
X119084523Y-115557142D01*
X119036904Y-115461904D01*
X118989285Y-115271428D01*
X118989285Y-115033333D01*
X119036904Y-114842857D01*
X119084523Y-114747619D01*
X119132142Y-114700000D01*
X119227380Y-114652380D01*
X120465476Y-114652380D02*
X119989285Y-114652380D01*
X119941666Y-115128571D01*
X119989285Y-115080952D01*
X120084523Y-115033333D01*
X120322619Y-115033333D01*
X120417857Y-115080952D01*
X120465476Y-115128571D01*
X120513095Y-115223809D01*
X120513095Y-115461904D01*
X120465476Y-115557142D01*
X120417857Y-115604761D01*
X120322619Y-115652380D01*
X120084523Y-115652380D01*
X119989285Y-115604761D01*
X119941666Y-115557142D01*
%TO.C,R104*%
X117880952Y-107252380D02*
X117547619Y-106776190D01*
X117309523Y-107252380D02*
X117309523Y-106252380D01*
X117690476Y-106252380D01*
X117785714Y-106300000D01*
X117833333Y-106347619D01*
X117880952Y-106442857D01*
X117880952Y-106585714D01*
X117833333Y-106680952D01*
X117785714Y-106728571D01*
X117690476Y-106776190D01*
X117309523Y-106776190D01*
X118833333Y-107252380D02*
X118261904Y-107252380D01*
X118547619Y-107252380D02*
X118547619Y-106252380D01*
X118452380Y-106395238D01*
X118357142Y-106490476D01*
X118261904Y-106538095D01*
X119452380Y-106252380D02*
X119547619Y-106252380D01*
X119642857Y-106300000D01*
X119690476Y-106347619D01*
X119738095Y-106442857D01*
X119785714Y-106633333D01*
X119785714Y-106871428D01*
X119738095Y-107061904D01*
X119690476Y-107157142D01*
X119642857Y-107204761D01*
X119547619Y-107252380D01*
X119452380Y-107252380D01*
X119357142Y-107204761D01*
X119309523Y-107157142D01*
X119261904Y-107061904D01*
X119214285Y-106871428D01*
X119214285Y-106633333D01*
X119261904Y-106442857D01*
X119309523Y-106347619D01*
X119357142Y-106300000D01*
X119452380Y-106252380D01*
X120642857Y-106585714D02*
X120642857Y-107252380D01*
X120404761Y-106204761D02*
X120166666Y-106919047D01*
X120785714Y-106919047D01*
%TO.C,R103*%
X93880952Y-125052380D02*
X93547619Y-124576190D01*
X93309523Y-125052380D02*
X93309523Y-124052380D01*
X93690476Y-124052380D01*
X93785714Y-124100000D01*
X93833333Y-124147619D01*
X93880952Y-124242857D01*
X93880952Y-124385714D01*
X93833333Y-124480952D01*
X93785714Y-124528571D01*
X93690476Y-124576190D01*
X93309523Y-124576190D01*
X94833333Y-125052380D02*
X94261904Y-125052380D01*
X94547619Y-125052380D02*
X94547619Y-124052380D01*
X94452380Y-124195238D01*
X94357142Y-124290476D01*
X94261904Y-124338095D01*
X95452380Y-124052380D02*
X95547619Y-124052380D01*
X95642857Y-124100000D01*
X95690476Y-124147619D01*
X95738095Y-124242857D01*
X95785714Y-124433333D01*
X95785714Y-124671428D01*
X95738095Y-124861904D01*
X95690476Y-124957142D01*
X95642857Y-125004761D01*
X95547619Y-125052380D01*
X95452380Y-125052380D01*
X95357142Y-125004761D01*
X95309523Y-124957142D01*
X95261904Y-124861904D01*
X95214285Y-124671428D01*
X95214285Y-124433333D01*
X95261904Y-124242857D01*
X95309523Y-124147619D01*
X95357142Y-124100000D01*
X95452380Y-124052380D01*
X96119047Y-124052380D02*
X96738095Y-124052380D01*
X96404761Y-124433333D01*
X96547619Y-124433333D01*
X96642857Y-124480952D01*
X96690476Y-124528571D01*
X96738095Y-124623809D01*
X96738095Y-124861904D01*
X96690476Y-124957142D01*
X96642857Y-125004761D01*
X96547619Y-125052380D01*
X96261904Y-125052380D01*
X96166666Y-125004761D01*
X96119047Y-124957142D01*
%TO.C,R102*%
X93880952Y-126652380D02*
X93547619Y-126176190D01*
X93309523Y-126652380D02*
X93309523Y-125652380D01*
X93690476Y-125652380D01*
X93785714Y-125700000D01*
X93833333Y-125747619D01*
X93880952Y-125842857D01*
X93880952Y-125985714D01*
X93833333Y-126080952D01*
X93785714Y-126128571D01*
X93690476Y-126176190D01*
X93309523Y-126176190D01*
X94833333Y-126652380D02*
X94261904Y-126652380D01*
X94547619Y-126652380D02*
X94547619Y-125652380D01*
X94452380Y-125795238D01*
X94357142Y-125890476D01*
X94261904Y-125938095D01*
X95452380Y-125652380D02*
X95547619Y-125652380D01*
X95642857Y-125700000D01*
X95690476Y-125747619D01*
X95738095Y-125842857D01*
X95785714Y-126033333D01*
X95785714Y-126271428D01*
X95738095Y-126461904D01*
X95690476Y-126557142D01*
X95642857Y-126604761D01*
X95547619Y-126652380D01*
X95452380Y-126652380D01*
X95357142Y-126604761D01*
X95309523Y-126557142D01*
X95261904Y-126461904D01*
X95214285Y-126271428D01*
X95214285Y-126033333D01*
X95261904Y-125842857D01*
X95309523Y-125747619D01*
X95357142Y-125700000D01*
X95452380Y-125652380D01*
X96166666Y-125747619D02*
X96214285Y-125700000D01*
X96309523Y-125652380D01*
X96547619Y-125652380D01*
X96642857Y-125700000D01*
X96690476Y-125747619D01*
X96738095Y-125842857D01*
X96738095Y-125938095D01*
X96690476Y-126080952D01*
X96119047Y-126652380D01*
X96738095Y-126652380D01*
%TO.C,R101*%
X93480952Y-118852380D02*
X93147619Y-118376190D01*
X92909523Y-118852380D02*
X92909523Y-117852380D01*
X93290476Y-117852380D01*
X93385714Y-117900000D01*
X93433333Y-117947619D01*
X93480952Y-118042857D01*
X93480952Y-118185714D01*
X93433333Y-118280952D01*
X93385714Y-118328571D01*
X93290476Y-118376190D01*
X92909523Y-118376190D01*
X94433333Y-118852380D02*
X93861904Y-118852380D01*
X94147619Y-118852380D02*
X94147619Y-117852380D01*
X94052380Y-117995238D01*
X93957142Y-118090476D01*
X93861904Y-118138095D01*
X95052380Y-117852380D02*
X95147619Y-117852380D01*
X95242857Y-117900000D01*
X95290476Y-117947619D01*
X95338095Y-118042857D01*
X95385714Y-118233333D01*
X95385714Y-118471428D01*
X95338095Y-118661904D01*
X95290476Y-118757142D01*
X95242857Y-118804761D01*
X95147619Y-118852380D01*
X95052380Y-118852380D01*
X94957142Y-118804761D01*
X94909523Y-118757142D01*
X94861904Y-118661904D01*
X94814285Y-118471428D01*
X94814285Y-118233333D01*
X94861904Y-118042857D01*
X94909523Y-117947619D01*
X94957142Y-117900000D01*
X95052380Y-117852380D01*
X96338095Y-118852380D02*
X95766666Y-118852380D01*
X96052380Y-118852380D02*
X96052380Y-117852380D01*
X95957142Y-117995238D01*
X95861904Y-118090476D01*
X95766666Y-118138095D01*
%TO.C,C103*%
X106880952Y-102357142D02*
X106833333Y-102404761D01*
X106690476Y-102452380D01*
X106595238Y-102452380D01*
X106452380Y-102404761D01*
X106357142Y-102309523D01*
X106309523Y-102214285D01*
X106261904Y-102023809D01*
X106261904Y-101880952D01*
X106309523Y-101690476D01*
X106357142Y-101595238D01*
X106452380Y-101500000D01*
X106595238Y-101452380D01*
X106690476Y-101452380D01*
X106833333Y-101500000D01*
X106880952Y-101547619D01*
X107833333Y-102452380D02*
X107261904Y-102452380D01*
X107547619Y-102452380D02*
X107547619Y-101452380D01*
X107452380Y-101595238D01*
X107357142Y-101690476D01*
X107261904Y-101738095D01*
X108452380Y-101452380D02*
X108547619Y-101452380D01*
X108642857Y-101500000D01*
X108690476Y-101547619D01*
X108738095Y-101642857D01*
X108785714Y-101833333D01*
X108785714Y-102071428D01*
X108738095Y-102261904D01*
X108690476Y-102357142D01*
X108642857Y-102404761D01*
X108547619Y-102452380D01*
X108452380Y-102452380D01*
X108357142Y-102404761D01*
X108309523Y-102357142D01*
X108261904Y-102261904D01*
X108214285Y-102071428D01*
X108214285Y-101833333D01*
X108261904Y-101642857D01*
X108309523Y-101547619D01*
X108357142Y-101500000D01*
X108452380Y-101452380D01*
X109119047Y-101452380D02*
X109738095Y-101452380D01*
X109404761Y-101833333D01*
X109547619Y-101833333D01*
X109642857Y-101880952D01*
X109690476Y-101928571D01*
X109738095Y-102023809D01*
X109738095Y-102261904D01*
X109690476Y-102357142D01*
X109642857Y-102404761D01*
X109547619Y-102452380D01*
X109261904Y-102452380D01*
X109166666Y-102404761D01*
X109119047Y-102357142D01*
%TO.C,C102*%
X82680952Y-100757142D02*
X82633333Y-100804761D01*
X82490476Y-100852380D01*
X82395238Y-100852380D01*
X82252380Y-100804761D01*
X82157142Y-100709523D01*
X82109523Y-100614285D01*
X82061904Y-100423809D01*
X82061904Y-100280952D01*
X82109523Y-100090476D01*
X82157142Y-99995238D01*
X82252380Y-99900000D01*
X82395238Y-99852380D01*
X82490476Y-99852380D01*
X82633333Y-99900000D01*
X82680952Y-99947619D01*
X83633333Y-100852380D02*
X83061904Y-100852380D01*
X83347619Y-100852380D02*
X83347619Y-99852380D01*
X83252380Y-99995238D01*
X83157142Y-100090476D01*
X83061904Y-100138095D01*
X84252380Y-99852380D02*
X84347619Y-99852380D01*
X84442857Y-99900000D01*
X84490476Y-99947619D01*
X84538095Y-100042857D01*
X84585714Y-100233333D01*
X84585714Y-100471428D01*
X84538095Y-100661904D01*
X84490476Y-100757142D01*
X84442857Y-100804761D01*
X84347619Y-100852380D01*
X84252380Y-100852380D01*
X84157142Y-100804761D01*
X84109523Y-100757142D01*
X84061904Y-100661904D01*
X84014285Y-100471428D01*
X84014285Y-100233333D01*
X84061904Y-100042857D01*
X84109523Y-99947619D01*
X84157142Y-99900000D01*
X84252380Y-99852380D01*
X84966666Y-99947619D02*
X85014285Y-99900000D01*
X85109523Y-99852380D01*
X85347619Y-99852380D01*
X85442857Y-99900000D01*
X85490476Y-99947619D01*
X85538095Y-100042857D01*
X85538095Y-100138095D01*
X85490476Y-100280952D01*
X84919047Y-100852380D01*
X85538095Y-100852380D01*
%TO.C,C101*%
X95880952Y-102357142D02*
X95833333Y-102404761D01*
X95690476Y-102452380D01*
X95595238Y-102452380D01*
X95452380Y-102404761D01*
X95357142Y-102309523D01*
X95309523Y-102214285D01*
X95261904Y-102023809D01*
X95261904Y-101880952D01*
X95309523Y-101690476D01*
X95357142Y-101595238D01*
X95452380Y-101500000D01*
X95595238Y-101452380D01*
X95690476Y-101452380D01*
X95833333Y-101500000D01*
X95880952Y-101547619D01*
X96833333Y-102452380D02*
X96261904Y-102452380D01*
X96547619Y-102452380D02*
X96547619Y-101452380D01*
X96452380Y-101595238D01*
X96357142Y-101690476D01*
X96261904Y-101738095D01*
X97452380Y-101452380D02*
X97547619Y-101452380D01*
X97642857Y-101500000D01*
X97690476Y-101547619D01*
X97738095Y-101642857D01*
X97785714Y-101833333D01*
X97785714Y-102071428D01*
X97738095Y-102261904D01*
X97690476Y-102357142D01*
X97642857Y-102404761D01*
X97547619Y-102452380D01*
X97452380Y-102452380D01*
X97357142Y-102404761D01*
X97309523Y-102357142D01*
X97261904Y-102261904D01*
X97214285Y-102071428D01*
X97214285Y-101833333D01*
X97261904Y-101642857D01*
X97309523Y-101547619D01*
X97357142Y-101500000D01*
X97452380Y-101452380D01*
X98738095Y-102452380D02*
X98166666Y-102452380D01*
X98452380Y-102452380D02*
X98452380Y-101452380D01*
X98357142Y-101595238D01*
X98261904Y-101690476D01*
X98166666Y-101738095D01*
D11*
%TO.C,J103*%
X87460000Y-89940000D02*
X87460000Y-89660000D01*
X87460000Y-89660000D02*
X89060000Y-89660000D01*
X89060000Y-89660000D02*
X89060000Y-88740000D01*
X89060000Y-88740000D02*
X81240000Y-88740000D01*
X81240000Y-88740000D02*
X81240000Y-98860000D01*
X81240000Y-98860000D02*
X89060000Y-98860000D01*
X89060000Y-98860000D02*
X89060000Y-97940000D01*
X89060000Y-97940000D02*
X87460000Y-97940000D01*
X87460000Y-97940000D02*
X87460000Y-97660000D01*
X81240000Y-91300000D02*
X85600000Y-91300000D01*
X85600000Y-91300000D02*
X85600000Y-96300000D01*
X85600000Y-96300000D02*
X81240000Y-96300000D01*
X87460000Y-88740000D02*
X87460000Y-89660000D01*
X87460000Y-98860000D02*
X87460000Y-97940000D01*
X85100000Y-89500000D02*
X83500000Y-89500000D01*
X83500000Y-89500000D02*
X83500000Y-90500000D01*
X83500000Y-90500000D02*
X85100000Y-90500000D01*
X85100000Y-90500000D02*
X85100000Y-89500000D01*
X85100000Y-98100000D02*
X83500000Y-98100000D01*
X83500000Y-98100000D02*
X83500000Y-97100000D01*
X83500000Y-97100000D02*
X85100000Y-97100000D01*
X85100000Y-97100000D02*
X85100000Y-98100000D01*
X83500000Y-90500000D02*
X81240000Y-90500000D01*
X83500000Y-90000000D02*
X81240000Y-90000000D01*
X87460000Y-89940000D02*
X88675000Y-89940000D01*
%TO.C,J115*%
X121340000Y-121890000D02*
X121060000Y-121890000D01*
X121060000Y-121890000D02*
X121060000Y-120290000D01*
X121060000Y-120290000D02*
X120140000Y-120290000D01*
X120140000Y-120290000D02*
X120140000Y-128110000D01*
X120140000Y-128110000D02*
X126260000Y-128110000D01*
X126260000Y-128110000D02*
X126260000Y-120290000D01*
X126260000Y-120290000D02*
X125340000Y-120290000D01*
X125340000Y-120290000D02*
X125340000Y-121890000D01*
X125340000Y-121890000D02*
X125060000Y-121890000D01*
X122700000Y-128110000D02*
X122700000Y-123750000D01*
X122700000Y-123750000D02*
X123700000Y-123750000D01*
X123700000Y-123750000D02*
X123700000Y-128110000D01*
X120140000Y-121890000D02*
X121060000Y-121890000D01*
X126260000Y-121890000D02*
X125340000Y-121890000D01*
X120900000Y-124250000D02*
X120900000Y-125850000D01*
X120900000Y-125850000D02*
X121900000Y-125850000D01*
X121900000Y-125850000D02*
X121900000Y-124250000D01*
X121900000Y-124250000D02*
X120900000Y-124250000D01*
X125500000Y-124250000D02*
X125500000Y-125850000D01*
X125500000Y-125850000D02*
X124500000Y-125850000D01*
X124500000Y-125850000D02*
X124500000Y-124250000D01*
X124500000Y-124250000D02*
X125500000Y-124250000D01*
X121900000Y-125850000D02*
X121900000Y-128110000D01*
X121400000Y-125850000D02*
X121400000Y-128110000D01*
X121340000Y-121890000D02*
X121340000Y-120675000D01*
%TO.C,J114*%
X113940000Y-121890000D02*
X113660000Y-121890000D01*
X113660000Y-121890000D02*
X113660000Y-120290000D01*
X113660000Y-120290000D02*
X112740000Y-120290000D01*
X112740000Y-120290000D02*
X112740000Y-128110000D01*
X112740000Y-128110000D02*
X118860000Y-128110000D01*
X118860000Y-128110000D02*
X118860000Y-120290000D01*
X118860000Y-120290000D02*
X117940000Y-120290000D01*
X117940000Y-120290000D02*
X117940000Y-121890000D01*
X117940000Y-121890000D02*
X117660000Y-121890000D01*
X115300000Y-128110000D02*
X115300000Y-123750000D01*
X115300000Y-123750000D02*
X116300000Y-123750000D01*
X116300000Y-123750000D02*
X116300000Y-128110000D01*
X112740000Y-121890000D02*
X113660000Y-121890000D01*
X118860000Y-121890000D02*
X117940000Y-121890000D01*
X113500000Y-124250000D02*
X113500000Y-125850000D01*
X113500000Y-125850000D02*
X114500000Y-125850000D01*
X114500000Y-125850000D02*
X114500000Y-124250000D01*
X114500000Y-124250000D02*
X113500000Y-124250000D01*
X118100000Y-124250000D02*
X118100000Y-125850000D01*
X118100000Y-125850000D02*
X117100000Y-125850000D01*
X117100000Y-125850000D02*
X117100000Y-124250000D01*
X117100000Y-124250000D02*
X118100000Y-124250000D01*
X114500000Y-125850000D02*
X114500000Y-128110000D01*
X114000000Y-125850000D02*
X114000000Y-128110000D01*
X113940000Y-121890000D02*
X113940000Y-120675000D01*
%TO.C,J113*%
X106540000Y-121940000D02*
X106260000Y-121940000D01*
X106260000Y-121940000D02*
X106260000Y-120340000D01*
X106260000Y-120340000D02*
X105340000Y-120340000D01*
X105340000Y-120340000D02*
X105340000Y-128160000D01*
X105340000Y-128160000D02*
X111460000Y-128160000D01*
X111460000Y-128160000D02*
X111460000Y-120340000D01*
X111460000Y-120340000D02*
X110540000Y-120340000D01*
X110540000Y-120340000D02*
X110540000Y-121940000D01*
X110540000Y-121940000D02*
X110260000Y-121940000D01*
X107900000Y-128160000D02*
X107900000Y-123800000D01*
X107900000Y-123800000D02*
X108900000Y-123800000D01*
X108900000Y-123800000D02*
X108900000Y-128160000D01*
X105340000Y-121940000D02*
X106260000Y-121940000D01*
X111460000Y-121940000D02*
X110540000Y-121940000D01*
X106100000Y-124300000D02*
X106100000Y-125900000D01*
X106100000Y-125900000D02*
X107100000Y-125900000D01*
X107100000Y-125900000D02*
X107100000Y-124300000D01*
X107100000Y-124300000D02*
X106100000Y-124300000D01*
X110700000Y-124300000D02*
X110700000Y-125900000D01*
X110700000Y-125900000D02*
X109700000Y-125900000D01*
X109700000Y-125900000D02*
X109700000Y-124300000D01*
X109700000Y-124300000D02*
X110700000Y-124300000D01*
X107100000Y-125900000D02*
X107100000Y-128160000D01*
X106600000Y-125900000D02*
X106600000Y-128160000D01*
X106540000Y-121940000D02*
X106540000Y-120725000D01*
%TO.C,J112*%
X99140000Y-121940000D02*
X98860000Y-121940000D01*
X98860000Y-121940000D02*
X98860000Y-120340000D01*
X98860000Y-120340000D02*
X97940000Y-120340000D01*
X97940000Y-120340000D02*
X97940000Y-128160000D01*
X97940000Y-128160000D02*
X104060000Y-128160000D01*
X104060000Y-128160000D02*
X104060000Y-120340000D01*
X104060000Y-120340000D02*
X103140000Y-120340000D01*
X103140000Y-120340000D02*
X103140000Y-121940000D01*
X103140000Y-121940000D02*
X102860000Y-121940000D01*
X100500000Y-128160000D02*
X100500000Y-123800000D01*
X100500000Y-123800000D02*
X101500000Y-123800000D01*
X101500000Y-123800000D02*
X101500000Y-128160000D01*
X97940000Y-121940000D02*
X98860000Y-121940000D01*
X104060000Y-121940000D02*
X103140000Y-121940000D01*
X98700000Y-124300000D02*
X98700000Y-125900000D01*
X98700000Y-125900000D02*
X99700000Y-125900000D01*
X99700000Y-125900000D02*
X99700000Y-124300000D01*
X99700000Y-124300000D02*
X98700000Y-124300000D01*
X103300000Y-124300000D02*
X103300000Y-125900000D01*
X103300000Y-125900000D02*
X102300000Y-125900000D01*
X102300000Y-125900000D02*
X102300000Y-124300000D01*
X102300000Y-124300000D02*
X103300000Y-124300000D01*
X99700000Y-125900000D02*
X99700000Y-128160000D01*
X99200000Y-125900000D02*
X99200000Y-128160000D01*
X99140000Y-121940000D02*
X99140000Y-120725000D01*
%TO.C,J111*%
X87510000Y-110340000D02*
X87510000Y-110060000D01*
X87510000Y-110060000D02*
X89110000Y-110060000D01*
X89110000Y-110060000D02*
X89110000Y-109140000D01*
X89110000Y-109140000D02*
X81290000Y-109140000D01*
X81290000Y-109140000D02*
X81290000Y-115260000D01*
X81290000Y-115260000D02*
X89110000Y-115260000D01*
X89110000Y-115260000D02*
X89110000Y-114340000D01*
X89110000Y-114340000D02*
X87510000Y-114340000D01*
X87510000Y-114340000D02*
X87510000Y-114060000D01*
X81290000Y-111700000D02*
X85650000Y-111700000D01*
X85650000Y-111700000D02*
X85650000Y-112700000D01*
X85650000Y-112700000D02*
X81290000Y-112700000D01*
X87510000Y-109140000D02*
X87510000Y-110060000D01*
X87510000Y-115260000D02*
X87510000Y-114340000D01*
X85150000Y-109900000D02*
X83550000Y-109900000D01*
X83550000Y-109900000D02*
X83550000Y-110900000D01*
X83550000Y-110900000D02*
X85150000Y-110900000D01*
X85150000Y-110900000D02*
X85150000Y-109900000D01*
X85150000Y-114500000D02*
X83550000Y-114500000D01*
X83550000Y-114500000D02*
X83550000Y-113500000D01*
X83550000Y-113500000D02*
X85150000Y-113500000D01*
X85150000Y-113500000D02*
X85150000Y-114500000D01*
X83550000Y-110900000D02*
X81290000Y-110900000D01*
X83550000Y-110400000D02*
X81290000Y-110400000D01*
X87510000Y-110340000D02*
X88725000Y-110340000D01*
%TO.C,J110*%
X87460000Y-102940000D02*
X87460000Y-102660000D01*
X87460000Y-102660000D02*
X89060000Y-102660000D01*
X89060000Y-102660000D02*
X89060000Y-101740000D01*
X89060000Y-101740000D02*
X81240000Y-101740000D01*
X81240000Y-101740000D02*
X81240000Y-107860000D01*
X81240000Y-107860000D02*
X89060000Y-107860000D01*
X89060000Y-107860000D02*
X89060000Y-106940000D01*
X89060000Y-106940000D02*
X87460000Y-106940000D01*
X87460000Y-106940000D02*
X87460000Y-106660000D01*
X81240000Y-104300000D02*
X85600000Y-104300000D01*
X85600000Y-104300000D02*
X85600000Y-105300000D01*
X85600000Y-105300000D02*
X81240000Y-105300000D01*
X87460000Y-101740000D02*
X87460000Y-102660000D01*
X87460000Y-107860000D02*
X87460000Y-106940000D01*
X85100000Y-102500000D02*
X83500000Y-102500000D01*
X83500000Y-102500000D02*
X83500000Y-103500000D01*
X83500000Y-103500000D02*
X85100000Y-103500000D01*
X85100000Y-103500000D02*
X85100000Y-102500000D01*
X85100000Y-107100000D02*
X83500000Y-107100000D01*
X83500000Y-107100000D02*
X83500000Y-106100000D01*
X83500000Y-106100000D02*
X85100000Y-106100000D01*
X85100000Y-106100000D02*
X85100000Y-107100000D01*
X83500000Y-103500000D02*
X81240000Y-103500000D01*
X83500000Y-103000000D02*
X81240000Y-103000000D01*
X87460000Y-102940000D02*
X88675000Y-102940000D01*
%TO.C,J109*%
X125890000Y-100260000D02*
X125890000Y-100540000D01*
X125890000Y-100540000D02*
X124290000Y-100540000D01*
X124290000Y-100540000D02*
X124290000Y-101460000D01*
X124290000Y-101460000D02*
X132110000Y-101460000D01*
X132110000Y-101460000D02*
X132110000Y-95340000D01*
X132110000Y-95340000D02*
X124290000Y-95340000D01*
X124290000Y-95340000D02*
X124290000Y-96260000D01*
X124290000Y-96260000D02*
X125890000Y-96260000D01*
X125890000Y-96260000D02*
X125890000Y-96540000D01*
X132110000Y-98900000D02*
X127750000Y-98900000D01*
X127750000Y-98900000D02*
X127750000Y-97900000D01*
X127750000Y-97900000D02*
X132110000Y-97900000D01*
X125890000Y-101460000D02*
X125890000Y-100540000D01*
X125890000Y-95340000D02*
X125890000Y-96260000D01*
X128250000Y-100700000D02*
X129850000Y-100700000D01*
X129850000Y-100700000D02*
X129850000Y-99700000D01*
X129850000Y-99700000D02*
X128250000Y-99700000D01*
X128250000Y-99700000D02*
X128250000Y-100700000D01*
X128250000Y-96100000D02*
X129850000Y-96100000D01*
X129850000Y-96100000D02*
X129850000Y-97100000D01*
X129850000Y-97100000D02*
X128250000Y-97100000D01*
X128250000Y-97100000D02*
X128250000Y-96100000D01*
X129850000Y-99700000D02*
X132110000Y-99700000D01*
X129850000Y-100200000D02*
X132110000Y-100200000D01*
X125890000Y-100260000D02*
X124675000Y-100260000D01*
%TO.C,J108*%
X125940000Y-93060000D02*
X125940000Y-93340000D01*
X125940000Y-93340000D02*
X124340000Y-93340000D01*
X124340000Y-93340000D02*
X124340000Y-94260000D01*
X124340000Y-94260000D02*
X132160000Y-94260000D01*
X132160000Y-94260000D02*
X132160000Y-88140000D01*
X132160000Y-88140000D02*
X124340000Y-88140000D01*
X124340000Y-88140000D02*
X124340000Y-89060000D01*
X124340000Y-89060000D02*
X125940000Y-89060000D01*
X125940000Y-89060000D02*
X125940000Y-89340000D01*
X132160000Y-91700000D02*
X127800000Y-91700000D01*
X127800000Y-91700000D02*
X127800000Y-90700000D01*
X127800000Y-90700000D02*
X132160000Y-90700000D01*
X125940000Y-94260000D02*
X125940000Y-93340000D01*
X125940000Y-88140000D02*
X125940000Y-89060000D01*
X128300000Y-93500000D02*
X129900000Y-93500000D01*
X129900000Y-93500000D02*
X129900000Y-92500000D01*
X129900000Y-92500000D02*
X128300000Y-92500000D01*
X128300000Y-92500000D02*
X128300000Y-93500000D01*
X128300000Y-88900000D02*
X129900000Y-88900000D01*
X129900000Y-88900000D02*
X129900000Y-89900000D01*
X129900000Y-89900000D02*
X128300000Y-89900000D01*
X128300000Y-89900000D02*
X128300000Y-88900000D01*
X129900000Y-92500000D02*
X132160000Y-92500000D01*
X129900000Y-93000000D02*
X132160000Y-93000000D01*
X125940000Y-93060000D02*
X124725000Y-93060000D01*
%TO.C,J107*%
X126140000Y-114660000D02*
X126140000Y-114940000D01*
X126140000Y-114940000D02*
X124540000Y-114940000D01*
X124540000Y-114940000D02*
X124540000Y-115860000D01*
X124540000Y-115860000D02*
X132360000Y-115860000D01*
X132360000Y-115860000D02*
X132360000Y-109740000D01*
X132360000Y-109740000D02*
X124540000Y-109740000D01*
X124540000Y-109740000D02*
X124540000Y-110660000D01*
X124540000Y-110660000D02*
X126140000Y-110660000D01*
X126140000Y-110660000D02*
X126140000Y-110940000D01*
X132360000Y-113300000D02*
X128000000Y-113300000D01*
X128000000Y-113300000D02*
X128000000Y-112300000D01*
X128000000Y-112300000D02*
X132360000Y-112300000D01*
X126140000Y-115860000D02*
X126140000Y-114940000D01*
X126140000Y-109740000D02*
X126140000Y-110660000D01*
X128500000Y-115100000D02*
X130100000Y-115100000D01*
X130100000Y-115100000D02*
X130100000Y-114100000D01*
X130100000Y-114100000D02*
X128500000Y-114100000D01*
X128500000Y-114100000D02*
X128500000Y-115100000D01*
X128500000Y-110500000D02*
X130100000Y-110500000D01*
X130100000Y-110500000D02*
X130100000Y-111500000D01*
X130100000Y-111500000D02*
X128500000Y-111500000D01*
X128500000Y-111500000D02*
X128500000Y-110500000D01*
X130100000Y-114100000D02*
X132360000Y-114100000D01*
X130100000Y-114600000D02*
X132360000Y-114600000D01*
X126140000Y-114660000D02*
X124925000Y-114660000D01*
%TO.C,J106*%
X125940000Y-107660000D02*
X125940000Y-107940000D01*
X125940000Y-107940000D02*
X124340000Y-107940000D01*
X124340000Y-107940000D02*
X124340000Y-108860000D01*
X124340000Y-108860000D02*
X132160000Y-108860000D01*
X132160000Y-108860000D02*
X132160000Y-102740000D01*
X132160000Y-102740000D02*
X124340000Y-102740000D01*
X124340000Y-102740000D02*
X124340000Y-103660000D01*
X124340000Y-103660000D02*
X125940000Y-103660000D01*
X125940000Y-103660000D02*
X125940000Y-103940000D01*
X132160000Y-106300000D02*
X127800000Y-106300000D01*
X127800000Y-106300000D02*
X127800000Y-105300000D01*
X127800000Y-105300000D02*
X132160000Y-105300000D01*
X125940000Y-108860000D02*
X125940000Y-107940000D01*
X125940000Y-102740000D02*
X125940000Y-103660000D01*
X128300000Y-108100000D02*
X129900000Y-108100000D01*
X129900000Y-108100000D02*
X129900000Y-107100000D01*
X129900000Y-107100000D02*
X128300000Y-107100000D01*
X128300000Y-107100000D02*
X128300000Y-108100000D01*
X128300000Y-103500000D02*
X129900000Y-103500000D01*
X129900000Y-103500000D02*
X129900000Y-104500000D01*
X129900000Y-104500000D02*
X128300000Y-104500000D01*
X128300000Y-104500000D02*
X128300000Y-103500000D01*
X129900000Y-107100000D02*
X132160000Y-107100000D01*
X129900000Y-107600000D02*
X132160000Y-107600000D01*
X125940000Y-107660000D02*
X124725000Y-107660000D01*
%TO.C,J105*%
X87460000Y-124740000D02*
X87460000Y-124460000D01*
X87460000Y-124460000D02*
X89060000Y-124460000D01*
X89060000Y-124460000D02*
X89060000Y-123540000D01*
X89060000Y-123540000D02*
X81240000Y-123540000D01*
X81240000Y-123540000D02*
X81240000Y-129660000D01*
X81240000Y-129660000D02*
X89060000Y-129660000D01*
X89060000Y-129660000D02*
X89060000Y-128740000D01*
X89060000Y-128740000D02*
X87460000Y-128740000D01*
X87460000Y-128740000D02*
X87460000Y-128460000D01*
X81240000Y-126100000D02*
X85600000Y-126100000D01*
X85600000Y-126100000D02*
X85600000Y-127100000D01*
X85600000Y-127100000D02*
X81240000Y-127100000D01*
X87460000Y-123540000D02*
X87460000Y-124460000D01*
X87460000Y-129660000D02*
X87460000Y-128740000D01*
X85100000Y-124300000D02*
X83500000Y-124300000D01*
X83500000Y-124300000D02*
X83500000Y-125300000D01*
X83500000Y-125300000D02*
X85100000Y-125300000D01*
X85100000Y-125300000D02*
X85100000Y-124300000D01*
X85100000Y-128900000D02*
X83500000Y-128900000D01*
X83500000Y-128900000D02*
X83500000Y-127900000D01*
X83500000Y-127900000D02*
X85100000Y-127900000D01*
X85100000Y-127900000D02*
X85100000Y-128900000D01*
X83500000Y-125300000D02*
X81240000Y-125300000D01*
X83500000Y-124800000D02*
X81240000Y-124800000D01*
X87460000Y-124740000D02*
X88675000Y-124740000D01*
%TO.C,J104*%
X87460000Y-117540000D02*
X88675000Y-117540000D01*
X83500000Y-117600000D02*
X81240000Y-117600000D01*
X83500000Y-118100000D02*
X81240000Y-118100000D01*
X85100000Y-120700000D02*
X85100000Y-121700000D01*
X83500000Y-120700000D02*
X85100000Y-120700000D01*
X83500000Y-121700000D02*
X83500000Y-120700000D01*
X85100000Y-121700000D02*
X83500000Y-121700000D01*
X85100000Y-118100000D02*
X85100000Y-117100000D01*
X83500000Y-118100000D02*
X85100000Y-118100000D01*
X83500000Y-117100000D02*
X83500000Y-118100000D01*
X85100000Y-117100000D02*
X83500000Y-117100000D01*
X87460000Y-122460000D02*
X87460000Y-121540000D01*
X87460000Y-116340000D02*
X87460000Y-117260000D01*
X85600000Y-119900000D02*
X81240000Y-119900000D01*
X85600000Y-118900000D02*
X85600000Y-119900000D01*
X81240000Y-118900000D02*
X85600000Y-118900000D01*
X87460000Y-121540000D02*
X87460000Y-121260000D01*
X89060000Y-121540000D02*
X87460000Y-121540000D01*
X89060000Y-122460000D02*
X89060000Y-121540000D01*
X81240000Y-122460000D02*
X89060000Y-122460000D01*
X81240000Y-116340000D02*
X81240000Y-122460000D01*
X89060000Y-116340000D02*
X81240000Y-116340000D01*
X89060000Y-117260000D02*
X89060000Y-116340000D01*
X87460000Y-117260000D02*
X89060000Y-117260000D01*
X87460000Y-117540000D02*
X87460000Y-117260000D01*
%TO.C,J102*%
X114210000Y-90710000D02*
X114210000Y-99830000D01*
X114210000Y-99830000D02*
X93630000Y-99830000D01*
X93630000Y-99830000D02*
X93630000Y-90710000D01*
X93630000Y-90710000D02*
X114210000Y-90710000D01*
X105970000Y-90710000D02*
X105970000Y-92020000D01*
X105970000Y-92020000D02*
X112910000Y-92020000D01*
X112910000Y-92020000D02*
X112910000Y-98520000D01*
X112910000Y-98520000D02*
X94930000Y-98520000D01*
X94930000Y-98520000D02*
X94930000Y-92020000D01*
X94930000Y-92020000D02*
X101870000Y-92020000D01*
X101870000Y-92020000D02*
X101870000Y-92020000D01*
X101870000Y-92020000D02*
X101870000Y-90710000D01*
X109000000Y-90320000D02*
X109500000Y-89320000D01*
X109500000Y-89320000D02*
X108500000Y-89320000D01*
X108500000Y-89320000D02*
X109000000Y-90320000D01*
%TO.C,R116*%
X125322500Y-117762742D02*
X125322500Y-118237258D01*
X124277500Y-117762742D02*
X124277500Y-118237258D01*
%TO.C,R115*%
X126922500Y-117762742D02*
X126922500Y-118237258D01*
X125877500Y-117762742D02*
X125877500Y-118237258D01*
%TO.C,R114*%
X115322500Y-117762742D02*
X115322500Y-118237258D01*
X114277500Y-117762742D02*
X114277500Y-118237258D01*
%TO.C,R113*%
X107922500Y-117962742D02*
X107922500Y-118437258D01*
X106877500Y-117962742D02*
X106877500Y-118437258D01*
%TO.C,R112*%
X109522500Y-117962742D02*
X109522500Y-118437258D01*
X108477500Y-117962742D02*
X108477500Y-118437258D01*
%TO.C,R111*%
X100522500Y-117962742D02*
X100522500Y-118437258D01*
X99477500Y-117962742D02*
X99477500Y-118437258D01*
%TO.C,R110*%
X91637258Y-104322500D02*
X91162742Y-104322500D01*
X91637258Y-103277500D02*
X91162742Y-103277500D01*
%TO.C,R109*%
X121762742Y-100677500D02*
X122237258Y-100677500D01*
X121762742Y-101722500D02*
X122237258Y-101722500D01*
%TO.C,R108*%
X121762742Y-99077500D02*
X122237258Y-99077500D01*
X121762742Y-100122500D02*
X122237258Y-100122500D01*
%TO.C,R107*%
X121762742Y-92922500D02*
X122237258Y-92922500D01*
X121762742Y-91877500D02*
X122237258Y-91877500D01*
%TO.C,R106*%
X121937742Y-112877500D02*
X122412258Y-112877500D01*
X121937742Y-113922500D02*
X122412258Y-113922500D01*
%TO.C,R105*%
X121962742Y-114677500D02*
X122437258Y-114677500D01*
X121962742Y-115722500D02*
X122437258Y-115722500D01*
%TO.C,R104*%
X121962742Y-106277500D02*
X122437258Y-106277500D01*
X121962742Y-107322500D02*
X122437258Y-107322500D01*
%TO.C,R103*%
X91637258Y-125122500D02*
X91162742Y-125122500D01*
X91637258Y-124077500D02*
X91162742Y-124077500D01*
%TO.C,R102*%
X91637258Y-126722500D02*
X91162742Y-126722500D01*
X91637258Y-125677500D02*
X91162742Y-125677500D01*
%TO.C,R101*%
X91437258Y-118922500D02*
X90962742Y-118922500D01*
X91437258Y-117877500D02*
X90962742Y-117877500D01*
%TO.C,C103*%
X104484420Y-101490000D02*
X104765580Y-101490000D01*
X104484420Y-102510000D02*
X104765580Y-102510000D01*
%TO.C,C102*%
X87059420Y-99890000D02*
X87340580Y-99890000D01*
X87059420Y-100910000D02*
X87340580Y-100910000D01*
%TO.C,C101*%
X100084420Y-101490000D02*
X100365580Y-101490000D01*
X100084420Y-102510000D02*
X100365580Y-102510000D01*
%TD*%
M02*
