%TF.GenerationSoftware,KiCad,Pcbnew,(5.99.0-12181-g5e8b23af64)*%
%TF.CreationDate,2021-11-12T15:18:20+01:00*%
%TF.ProjectId,phoniebox_shield,70686f6e-6965-4626-9f78-5f736869656c,rev?*%
%TF.SameCoordinates,Original*%
%TF.FileFunction,Legend,Bot*%
%TF.FilePolarity,Positive*%
%FSLAX46Y46*%
G04 Gerber Fmt 4.6, Leading zero omitted, Abs format (unit mm)*
G04 Created by KiCad (PCBNEW (5.99.0-12181-g5e8b23af64)) date 2021-11-12 15:18:20*
%MOMM*%
%LPD*%
G01*
G04 APERTURE LIST*
%ADD10C,0.150000*%
%ADD11C,0.120000*%
G04 APERTURE END LIST*
D10*
%TO.C,J101*%
X96285714Y-87452380D02*
X96285714Y-88166666D01*
X96333333Y-88309523D01*
X96428571Y-88404761D01*
X96571428Y-88452380D01*
X96666666Y-88452380D01*
X95285714Y-88452380D02*
X95857142Y-88452380D01*
X95571428Y-88452380D02*
X95571428Y-87452380D01*
X95666666Y-87595238D01*
X95761904Y-87690476D01*
X95857142Y-87738095D01*
X94666666Y-87452380D02*
X94571428Y-87452380D01*
X94476190Y-87500000D01*
X94428571Y-87547619D01*
X94380952Y-87642857D01*
X94333333Y-87833333D01*
X94333333Y-88071428D01*
X94380952Y-88261904D01*
X94428571Y-88357142D01*
X94476190Y-88404761D01*
X94571428Y-88452380D01*
X94666666Y-88452380D01*
X94761904Y-88404761D01*
X94809523Y-88357142D01*
X94857142Y-88261904D01*
X94904761Y-88071428D01*
X94904761Y-87833333D01*
X94857142Y-87642857D01*
X94809523Y-87547619D01*
X94761904Y-87500000D01*
X94666666Y-87452380D01*
X93380952Y-88452380D02*
X93952380Y-88452380D01*
X93666666Y-88452380D02*
X93666666Y-87452380D01*
X93761904Y-87595238D01*
X93857142Y-87690476D01*
X93952380Y-87738095D01*
D11*
X81140000Y-81110000D02*
X81140000Y-83710000D01*
X81140000Y-81110000D02*
X132060000Y-81110000D01*
X132060000Y-81110000D02*
X132060000Y-86310000D01*
X83740000Y-86310000D02*
X132060000Y-86310000D01*
X83740000Y-83710000D02*
X83740000Y-86310000D01*
X81140000Y-83710000D02*
X83740000Y-83710000D01*
X81140000Y-86310000D02*
X82470000Y-86310000D01*
X81140000Y-84980000D02*
X81140000Y-86310000D01*
%TD*%
M02*
