%FSLAX45Y45*%
G04 Gerber Fmt 4.5, Leading zero omitted, Abs format (unit mm)*
G04 Created by KiCad (PCBNEW (5.99.0-12181-g5e8b23af64)) date 2021-11-12 15:18:38*
%MOMM*%
%LPD*%
G01*
G04 APERTURE LIST*
%TA.AperFunction,Profile*%
%ADD10C,0.100000*%
%TD*%
%ADD11C,0.200000*%
%ADD12C,0.040000*%
%ADD13C,0.075000*%
%ADD14C,0.100000*%
G04 APERTURE END LIST*
D10*
X8000000Y-13000000D02*
X8000000Y-8000000D01*
X13300000Y-13000000D02*
X8000000Y-13000000D01*
X13300000Y-8000000D02*
X13300000Y-13000000D01*
X8000000Y-8000000D02*
X13300000Y-8000000D01*
D11*
D12*
X10380000Y-9980000D02*
X10420000Y-10020000D01*
X10420000Y-9980000D02*
X10380000Y-10020000D01*
X11380000Y-8680000D02*
X11420000Y-8720000D01*
X11420000Y-8680000D02*
X11380000Y-8720000D01*
X12480000Y-8680000D02*
X12520000Y-8720000D01*
X12520000Y-8680000D02*
X12480000Y-8720000D01*
X12480000Y-8780000D02*
X12520000Y-8820000D01*
X12520000Y-8780000D02*
X12480000Y-8820000D01*
X12762598Y-10080000D02*
X12802598Y-10120000D01*
X12802598Y-10080000D02*
X12762598Y-10120000D01*
X12780000Y-8880000D02*
X12820000Y-8920000D01*
X12820000Y-8880000D02*
X12780000Y-8920000D01*
D13*
X8797500Y-9080000D02*
G75*
G03*
X8797500Y-9080000I-37500J0D01*
G01*
X8797500Y-9280000D02*
G75*
G03*
X8797500Y-9280000I-37500J0D01*
G01*
X8797500Y-9480000D02*
G75*
G03*
X8797500Y-9480000I-37500J0D01*
G01*
X8797500Y-9680000D02*
G75*
G03*
X8797500Y-9680000I-37500J0D01*
G01*
X8797500Y-10380000D02*
G75*
G03*
X8797500Y-10380000I-37500J0D01*
G01*
X8797500Y-10580000D02*
G75*
G03*
X8797500Y-10580000I-37500J0D01*
G01*
X8797500Y-11840000D02*
G75*
G03*
X8797500Y-11840000I-37500J0D01*
G01*
X8797500Y-12040000D02*
G75*
G03*
X8797500Y-12040000I-37500J0D01*
G01*
X8797500Y-12560000D02*
G75*
G03*
X8797500Y-12560000I-37500J0D01*
G01*
X8797500Y-12760000D02*
G75*
G03*
X8797500Y-12760000I-37500J0D01*
G01*
X8802500Y-11120000D02*
G75*
G03*
X8802500Y-11120000I-37500J0D01*
G01*
X8802500Y-11320000D02*
G75*
G03*
X8802500Y-11320000I-37500J0D01*
G01*
X10037500Y-12180000D02*
G75*
G03*
X10037500Y-12180000I-37500J0D01*
G01*
X10237500Y-12180000D02*
G75*
G03*
X10237500Y-12180000I-37500J0D01*
G01*
X10777500Y-12180000D02*
G75*
G03*
X10777500Y-12180000I-37500J0D01*
G01*
X10977500Y-12180000D02*
G75*
G03*
X10977500Y-12180000I-37500J0D01*
G01*
X11517500Y-12175000D02*
G75*
G03*
X11517500Y-12175000I-37500J0D01*
G01*
X11717500Y-12175000D02*
G75*
G03*
X11717500Y-12175000I-37500J0D01*
G01*
X12257500Y-12175000D02*
G75*
G03*
X12257500Y-12175000I-37500J0D01*
G01*
X12457500Y-12175000D02*
G75*
G03*
X12457500Y-12175000I-37500J0D01*
G01*
X12612500Y-9740000D02*
G75*
G03*
X12612500Y-9740000I-37500J0D01*
G01*
X12612500Y-9940000D02*
G75*
G03*
X12612500Y-9940000I-37500J0D01*
G01*
X12617500Y-9020000D02*
G75*
G03*
X12617500Y-9020000I-37500J0D01*
G01*
X12617500Y-9220000D02*
G75*
G03*
X12617500Y-9220000I-37500J0D01*
G01*
X12617500Y-10480000D02*
G75*
G03*
X12617500Y-10480000I-37500J0D01*
G01*
X12617500Y-10680000D02*
G75*
G03*
X12617500Y-10680000I-37500J0D01*
G01*
X12637500Y-11180000D02*
G75*
G03*
X12637500Y-11180000I-37500J0D01*
G01*
X12637500Y-11380000D02*
G75*
G03*
X12637500Y-11380000I-37500J0D01*
G01*
D14*
X8247000Y-8194000D02*
X8247000Y-8294000D01*
X8197000Y-8244000D02*
X8297000Y-8244000D01*
X8247000Y-8448000D02*
X8247000Y-8548000D01*
X8197000Y-8498000D02*
X8297000Y-8498000D01*
X8501000Y-8194000D02*
X8501000Y-8294000D01*
X8451000Y-8244000D02*
X8551000Y-8244000D01*
X8501000Y-8448000D02*
X8501000Y-8548000D01*
X8451000Y-8498000D02*
X8551000Y-8498000D01*
X8755000Y-8194000D02*
X8755000Y-8294000D01*
X8705000Y-8244000D02*
X8805000Y-8244000D01*
X8755000Y-8448000D02*
X8755000Y-8548000D01*
X8705000Y-8498000D02*
X8805000Y-8498000D01*
X9009000Y-8194000D02*
X9009000Y-8294000D01*
X8959000Y-8244000D02*
X9059000Y-8244000D01*
X9009000Y-8448000D02*
X9009000Y-8548000D01*
X8959000Y-8498000D02*
X9059000Y-8498000D01*
X9263000Y-8194000D02*
X9263000Y-8294000D01*
X9213000Y-8244000D02*
X9313000Y-8244000D01*
X9263000Y-8448000D02*
X9263000Y-8548000D01*
X9213000Y-8498000D02*
X9313000Y-8498000D01*
X9517000Y-8194000D02*
X9517000Y-8294000D01*
X9467000Y-8244000D02*
X9567000Y-8244000D01*
X9517000Y-8448000D02*
X9517000Y-8548000D01*
X9467000Y-8498000D02*
X9567000Y-8498000D01*
X9771000Y-8194000D02*
X9771000Y-8294000D01*
X9721000Y-8244000D02*
X9821000Y-8244000D01*
X9771000Y-8448000D02*
X9771000Y-8548000D01*
X9721000Y-8498000D02*
X9821000Y-8498000D01*
X9884000Y-9350000D02*
X9884000Y-9450000D01*
X9834000Y-9400000D02*
X9934000Y-9400000D01*
X9884000Y-9604000D02*
X9884000Y-9704000D01*
X9834000Y-9654000D02*
X9934000Y-9654000D01*
X9925000Y-10516000D02*
X9925000Y-10616000D01*
X9875000Y-10566000D02*
X9975000Y-10566000D01*
X9925000Y-10770000D02*
X9925000Y-10870000D01*
X9875000Y-10820000D02*
X9975000Y-10820000D01*
X10025000Y-8194000D02*
X10025000Y-8294000D01*
X9975000Y-8244000D02*
X10075000Y-8244000D01*
X10025000Y-8448000D02*
X10025000Y-8548000D01*
X9975000Y-8498000D02*
X10075000Y-8498000D01*
X10138000Y-9350000D02*
X10138000Y-9450000D01*
X10088000Y-9400000D02*
X10188000Y-9400000D01*
X10138000Y-9604000D02*
X10138000Y-9704000D01*
X10088000Y-9654000D02*
X10188000Y-9654000D01*
X10179000Y-10516000D02*
X10179000Y-10616000D01*
X10129000Y-10566000D02*
X10229000Y-10566000D01*
X10179000Y-10770000D02*
X10179000Y-10870000D01*
X10129000Y-10820000D02*
X10229000Y-10820000D01*
X10279000Y-8194000D02*
X10279000Y-8294000D01*
X10229000Y-8244000D02*
X10329000Y-8244000D01*
X10279000Y-8448000D02*
X10279000Y-8548000D01*
X10229000Y-8498000D02*
X10329000Y-8498000D01*
X10392000Y-9350000D02*
X10392000Y-9450000D01*
X10342000Y-9400000D02*
X10442000Y-9400000D01*
X10392000Y-9604000D02*
X10392000Y-9704000D01*
X10342000Y-9654000D02*
X10442000Y-9654000D01*
X10433000Y-10516000D02*
X10433000Y-10616000D01*
X10383000Y-10566000D02*
X10483000Y-10566000D01*
X10433000Y-10770000D02*
X10433000Y-10870000D01*
X10383000Y-10820000D02*
X10483000Y-10820000D01*
X10533000Y-8194000D02*
X10533000Y-8294000D01*
X10483000Y-8244000D02*
X10583000Y-8244000D01*
X10533000Y-8448000D02*
X10533000Y-8548000D01*
X10483000Y-8498000D02*
X10583000Y-8498000D01*
X10646000Y-9350000D02*
X10646000Y-9450000D01*
X10596000Y-9400000D02*
X10696000Y-9400000D01*
X10646000Y-9604000D02*
X10646000Y-9704000D01*
X10596000Y-9654000D02*
X10696000Y-9654000D01*
X10687000Y-10516000D02*
X10687000Y-10616000D01*
X10637000Y-10566000D02*
X10737000Y-10566000D01*
X10687000Y-10770000D02*
X10687000Y-10870000D01*
X10637000Y-10820000D02*
X10737000Y-10820000D01*
X10787000Y-8194000D02*
X10787000Y-8294000D01*
X10737000Y-8244000D02*
X10837000Y-8244000D01*
X10787000Y-8448000D02*
X10787000Y-8548000D01*
X10737000Y-8498000D02*
X10837000Y-8498000D01*
X10900000Y-9350000D02*
X10900000Y-9450000D01*
X10850000Y-9400000D02*
X10950000Y-9400000D01*
X10900000Y-9604000D02*
X10900000Y-9704000D01*
X10850000Y-9654000D02*
X10950000Y-9654000D01*
X10941000Y-10516000D02*
X10941000Y-10616000D01*
X10891000Y-10566000D02*
X10991000Y-10566000D01*
X10941000Y-10770000D02*
X10941000Y-10870000D01*
X10891000Y-10820000D02*
X10991000Y-10820000D01*
X11041000Y-8194000D02*
X11041000Y-8294000D01*
X10991000Y-8244000D02*
X11091000Y-8244000D01*
X11041000Y-8448000D02*
X11041000Y-8548000D01*
X10991000Y-8498000D02*
X11091000Y-8498000D01*
X11195000Y-10516000D02*
X11195000Y-10616000D01*
X11145000Y-10566000D02*
X11245000Y-10566000D01*
X11195000Y-10770000D02*
X11195000Y-10870000D01*
X11145000Y-10820000D02*
X11245000Y-10820000D01*
X11295000Y-8194000D02*
X11295000Y-8294000D01*
X11245000Y-8244000D02*
X11345000Y-8244000D01*
X11295000Y-8448000D02*
X11295000Y-8548000D01*
X11245000Y-8498000D02*
X11345000Y-8498000D01*
X11549000Y-8194000D02*
X11549000Y-8294000D01*
X11499000Y-8244000D02*
X11599000Y-8244000D01*
X11549000Y-8448000D02*
X11549000Y-8548000D01*
X11499000Y-8498000D02*
X11599000Y-8498000D01*
X11803000Y-8194000D02*
X11803000Y-8294000D01*
X11753000Y-8244000D02*
X11853000Y-8244000D01*
X11803000Y-8448000D02*
X11803000Y-8548000D01*
X11753000Y-8498000D02*
X11853000Y-8498000D01*
X11841000Y-11710000D02*
X11841000Y-11810000D01*
X11791000Y-11760000D02*
X11891000Y-11760000D01*
X12057000Y-8194000D02*
X12057000Y-8294000D01*
X12007000Y-8244000D02*
X12107000Y-8244000D01*
X12057000Y-8448000D02*
X12057000Y-8548000D01*
X12007000Y-8498000D02*
X12107000Y-8498000D01*
X12095000Y-11710000D02*
X12095000Y-11810000D01*
X12045000Y-11760000D02*
X12145000Y-11760000D01*
X12311000Y-8194000D02*
X12311000Y-8294000D01*
X12261000Y-8244000D02*
X12361000Y-8244000D01*
X12311000Y-8448000D02*
X12311000Y-8548000D01*
X12261000Y-8498000D02*
X12361000Y-8498000D01*
X12565000Y-8194000D02*
X12565000Y-8294000D01*
X12515000Y-8244000D02*
X12615000Y-8244000D01*
X12565000Y-8448000D02*
X12565000Y-8548000D01*
X12515000Y-8498000D02*
X12615000Y-8498000D01*
X12819000Y-8194000D02*
X12819000Y-8294000D01*
X12769000Y-8244000D02*
X12869000Y-8244000D01*
X12819000Y-8448000D02*
X12819000Y-8548000D01*
X12769000Y-8498000D02*
X12869000Y-8498000D01*
X13073000Y-8194000D02*
X13073000Y-8294000D01*
X13023000Y-8244000D02*
X13123000Y-8244000D01*
X13073000Y-8448000D02*
X13073000Y-8548000D01*
X13023000Y-8498000D02*
X13123000Y-8498000D01*
D11*
X8252619Y-13315476D02*
X8252619Y-13115476D01*
X8300238Y-13115476D01*
X8328809Y-13125000D01*
X8347857Y-13144048D01*
X8357381Y-13163095D01*
X8366905Y-13201190D01*
X8366905Y-13229762D01*
X8357381Y-13267857D01*
X8347857Y-13286905D01*
X8328809Y-13305952D01*
X8300238Y-13315476D01*
X8252619Y-13315476D01*
X8452619Y-13315476D02*
X8452619Y-13182143D01*
X8452619Y-13220238D02*
X8462143Y-13201190D01*
X8471667Y-13191667D01*
X8490714Y-13182143D01*
X8509762Y-13182143D01*
X8576429Y-13315476D02*
X8576429Y-13182143D01*
X8576429Y-13115476D02*
X8566905Y-13125000D01*
X8576429Y-13134524D01*
X8585952Y-13125000D01*
X8576429Y-13115476D01*
X8576429Y-13134524D01*
X8700238Y-13315476D02*
X8681190Y-13305952D01*
X8671667Y-13286905D01*
X8671667Y-13115476D01*
X8805000Y-13315476D02*
X8785952Y-13305952D01*
X8776429Y-13286905D01*
X8776429Y-13115476D01*
X9033571Y-13315476D02*
X9033571Y-13115476D01*
X9100238Y-13258333D01*
X9166905Y-13115476D01*
X9166905Y-13315476D01*
X9347857Y-13315476D02*
X9347857Y-13210714D01*
X9338333Y-13191667D01*
X9319286Y-13182143D01*
X9281190Y-13182143D01*
X9262143Y-13191667D01*
X9347857Y-13305952D02*
X9328810Y-13315476D01*
X9281190Y-13315476D01*
X9262143Y-13305952D01*
X9252619Y-13286905D01*
X9252619Y-13267857D01*
X9262143Y-13248809D01*
X9281190Y-13239286D01*
X9328810Y-13239286D01*
X9347857Y-13229762D01*
X9443095Y-13182143D02*
X9443095Y-13382143D01*
X9443095Y-13191667D02*
X9462143Y-13182143D01*
X9500238Y-13182143D01*
X9519286Y-13191667D01*
X9528810Y-13201190D01*
X9538333Y-13220238D01*
X9538333Y-13277381D01*
X9528810Y-13296428D01*
X9519286Y-13305952D01*
X9500238Y-13315476D01*
X9462143Y-13315476D01*
X9443095Y-13305952D01*
X9624048Y-13296428D02*
X9633571Y-13305952D01*
X9624048Y-13315476D01*
X9614524Y-13305952D01*
X9624048Y-13296428D01*
X9624048Y-13315476D01*
X9624048Y-13191667D02*
X9633571Y-13201190D01*
X9624048Y-13210714D01*
X9614524Y-13201190D01*
X9624048Y-13191667D01*
X9624048Y-13210714D01*
D12*
X7955000Y-13625000D02*
X7995000Y-13665000D01*
X7995000Y-13625000D02*
X7955000Y-13665000D01*
D11*
X8290714Y-13535476D02*
X8309762Y-13535476D01*
X8328809Y-13545000D01*
X8338333Y-13554524D01*
X8347857Y-13573571D01*
X8357381Y-13611667D01*
X8357381Y-13659286D01*
X8347857Y-13697381D01*
X8338333Y-13716428D01*
X8328809Y-13725952D01*
X8309762Y-13735476D01*
X8290714Y-13735476D01*
X8271667Y-13725952D01*
X8262143Y-13716428D01*
X8252619Y-13697381D01*
X8243095Y-13659286D01*
X8243095Y-13611667D01*
X8252619Y-13573571D01*
X8262143Y-13554524D01*
X8271667Y-13545000D01*
X8290714Y-13535476D01*
X8443095Y-13716428D02*
X8452619Y-13725952D01*
X8443095Y-13735476D01*
X8433571Y-13725952D01*
X8443095Y-13716428D01*
X8443095Y-13735476D01*
X8624048Y-13602143D02*
X8624048Y-13735476D01*
X8576429Y-13525952D02*
X8528810Y-13668809D01*
X8652619Y-13668809D01*
X8766905Y-13535476D02*
X8785952Y-13535476D01*
X8805000Y-13545000D01*
X8814524Y-13554524D01*
X8824048Y-13573571D01*
X8833571Y-13611667D01*
X8833571Y-13659286D01*
X8824048Y-13697381D01*
X8814524Y-13716428D01*
X8805000Y-13725952D01*
X8785952Y-13735476D01*
X8766905Y-13735476D01*
X8747857Y-13725952D01*
X8738333Y-13716428D01*
X8728810Y-13697381D01*
X8719286Y-13659286D01*
X8719286Y-13611667D01*
X8728810Y-13573571D01*
X8738333Y-13554524D01*
X8747857Y-13545000D01*
X8766905Y-13535476D01*
X8957381Y-13535476D02*
X8976429Y-13535476D01*
X8995476Y-13545000D01*
X9005000Y-13554524D01*
X9014524Y-13573571D01*
X9024048Y-13611667D01*
X9024048Y-13659286D01*
X9014524Y-13697381D01*
X9005000Y-13716428D01*
X8995476Y-13725952D01*
X8976429Y-13735476D01*
X8957381Y-13735476D01*
X8938333Y-13725952D01*
X8928810Y-13716428D01*
X8919286Y-13697381D01*
X8909762Y-13659286D01*
X8909762Y-13611667D01*
X8919286Y-13573571D01*
X8928810Y-13554524D01*
X8938333Y-13545000D01*
X8957381Y-13535476D01*
X9109762Y-13735476D02*
X9109762Y-13602143D01*
X9109762Y-13621190D02*
X9119286Y-13611667D01*
X9138333Y-13602143D01*
X9166905Y-13602143D01*
X9185952Y-13611667D01*
X9195476Y-13630714D01*
X9195476Y-13735476D01*
X9195476Y-13630714D02*
X9205000Y-13611667D01*
X9224048Y-13602143D01*
X9252619Y-13602143D01*
X9271667Y-13611667D01*
X9281190Y-13630714D01*
X9281190Y-13735476D01*
X9376429Y-13735476D02*
X9376429Y-13602143D01*
X9376429Y-13621190D02*
X9385952Y-13611667D01*
X9405000Y-13602143D01*
X9433571Y-13602143D01*
X9452619Y-13611667D01*
X9462143Y-13630714D01*
X9462143Y-13735476D01*
X9462143Y-13630714D02*
X9471667Y-13611667D01*
X9490714Y-13602143D01*
X9519286Y-13602143D01*
X9538333Y-13611667D01*
X9547857Y-13630714D01*
X9547857Y-13735476D01*
X9938333Y-13525952D02*
X9766905Y-13783095D01*
X10195476Y-13535476D02*
X10214524Y-13535476D01*
X10233571Y-13545000D01*
X10243095Y-13554524D01*
X10252619Y-13573571D01*
X10262143Y-13611667D01*
X10262143Y-13659286D01*
X10252619Y-13697381D01*
X10243095Y-13716428D01*
X10233571Y-13725952D01*
X10214524Y-13735476D01*
X10195476Y-13735476D01*
X10176429Y-13725952D01*
X10166905Y-13716428D01*
X10157381Y-13697381D01*
X10147857Y-13659286D01*
X10147857Y-13611667D01*
X10157381Y-13573571D01*
X10166905Y-13554524D01*
X10176429Y-13545000D01*
X10195476Y-13535476D01*
X10347857Y-13716428D02*
X10357381Y-13725952D01*
X10347857Y-13735476D01*
X10338333Y-13725952D01*
X10347857Y-13716428D01*
X10347857Y-13735476D01*
X10481190Y-13535476D02*
X10500238Y-13535476D01*
X10519286Y-13545000D01*
X10528810Y-13554524D01*
X10538333Y-13573571D01*
X10547857Y-13611667D01*
X10547857Y-13659286D01*
X10538333Y-13697381D01*
X10528810Y-13716428D01*
X10519286Y-13725952D01*
X10500238Y-13735476D01*
X10481190Y-13735476D01*
X10462143Y-13725952D01*
X10452619Y-13716428D01*
X10443095Y-13697381D01*
X10433571Y-13659286D01*
X10433571Y-13611667D01*
X10443095Y-13573571D01*
X10452619Y-13554524D01*
X10462143Y-13545000D01*
X10481190Y-13535476D01*
X10738333Y-13735476D02*
X10624048Y-13735476D01*
X10681190Y-13735476D02*
X10681190Y-13535476D01*
X10662143Y-13564048D01*
X10643095Y-13583095D01*
X10624048Y-13592619D01*
X10919286Y-13535476D02*
X10824048Y-13535476D01*
X10814524Y-13630714D01*
X10824048Y-13621190D01*
X10843095Y-13611667D01*
X10890714Y-13611667D01*
X10909762Y-13621190D01*
X10919286Y-13630714D01*
X10928810Y-13649762D01*
X10928810Y-13697381D01*
X10919286Y-13716428D01*
X10909762Y-13725952D01*
X10890714Y-13735476D01*
X10843095Y-13735476D01*
X10824048Y-13725952D01*
X10814524Y-13716428D01*
X10995476Y-13535476D02*
X11128810Y-13535476D01*
X11043095Y-13735476D01*
X11195476Y-13535476D02*
X11195476Y-13573571D01*
X11271667Y-13535476D02*
X11271667Y-13573571D01*
X11566905Y-13811667D02*
X11557381Y-13802143D01*
X11538333Y-13773571D01*
X11528809Y-13754524D01*
X11519286Y-13725952D01*
X11509762Y-13678333D01*
X11509762Y-13640238D01*
X11519286Y-13592619D01*
X11528809Y-13564048D01*
X11538333Y-13545000D01*
X11557381Y-13516428D01*
X11566905Y-13506905D01*
X11728809Y-13535476D02*
X11690714Y-13535476D01*
X11671667Y-13545000D01*
X11662143Y-13554524D01*
X11643095Y-13583095D01*
X11633571Y-13621190D01*
X11633571Y-13697381D01*
X11643095Y-13716428D01*
X11652619Y-13725952D01*
X11671667Y-13735476D01*
X11709762Y-13735476D01*
X11728809Y-13725952D01*
X11738333Y-13716428D01*
X11747857Y-13697381D01*
X11747857Y-13649762D01*
X11738333Y-13630714D01*
X11728809Y-13621190D01*
X11709762Y-13611667D01*
X11671667Y-13611667D01*
X11652619Y-13621190D01*
X11643095Y-13630714D01*
X11633571Y-13649762D01*
X11985952Y-13735476D02*
X11985952Y-13535476D01*
X12071667Y-13735476D02*
X12071667Y-13630714D01*
X12062143Y-13611667D01*
X12043095Y-13602143D01*
X12014524Y-13602143D01*
X11995476Y-13611667D01*
X11985952Y-13621190D01*
X12195476Y-13735476D02*
X12176428Y-13725952D01*
X12166905Y-13716428D01*
X12157381Y-13697381D01*
X12157381Y-13640238D01*
X12166905Y-13621190D01*
X12176428Y-13611667D01*
X12195476Y-13602143D01*
X12224048Y-13602143D01*
X12243095Y-13611667D01*
X12252619Y-13621190D01*
X12262143Y-13640238D01*
X12262143Y-13697381D01*
X12252619Y-13716428D01*
X12243095Y-13725952D01*
X12224048Y-13735476D01*
X12195476Y-13735476D01*
X12376428Y-13735476D02*
X12357381Y-13725952D01*
X12347857Y-13706905D01*
X12347857Y-13535476D01*
X12528809Y-13725952D02*
X12509762Y-13735476D01*
X12471667Y-13735476D01*
X12452619Y-13725952D01*
X12443095Y-13706905D01*
X12443095Y-13630714D01*
X12452619Y-13611667D01*
X12471667Y-13602143D01*
X12509762Y-13602143D01*
X12528809Y-13611667D01*
X12538333Y-13630714D01*
X12538333Y-13649762D01*
X12443095Y-13668809D01*
X12614524Y-13725952D02*
X12633571Y-13735476D01*
X12671667Y-13735476D01*
X12690714Y-13725952D01*
X12700238Y-13706905D01*
X12700238Y-13697381D01*
X12690714Y-13678333D01*
X12671667Y-13668809D01*
X12643095Y-13668809D01*
X12624048Y-13659286D01*
X12614524Y-13640238D01*
X12614524Y-13630714D01*
X12624048Y-13611667D01*
X12643095Y-13602143D01*
X12671667Y-13602143D01*
X12690714Y-13611667D01*
X12766905Y-13811667D02*
X12776428Y-13802143D01*
X12795476Y-13773571D01*
X12805000Y-13754524D01*
X12814524Y-13725952D01*
X12824048Y-13678333D01*
X12824048Y-13640238D01*
X12814524Y-13592619D01*
X12805000Y-13564048D01*
X12795476Y-13545000D01*
X12776428Y-13516428D01*
X12766905Y-13506905D01*
D13*
X7995000Y-13909000D02*
G75*
G03*
X7995000Y-13909000I-37500J0D01*
G01*
D11*
X8290714Y-13799476D02*
X8309762Y-13799476D01*
X8328809Y-13809000D01*
X8338333Y-13818524D01*
X8347857Y-13837571D01*
X8357381Y-13875667D01*
X8357381Y-13923286D01*
X8347857Y-13961381D01*
X8338333Y-13980428D01*
X8328809Y-13989952D01*
X8309762Y-13999476D01*
X8290714Y-13999476D01*
X8271667Y-13989952D01*
X8262143Y-13980428D01*
X8252619Y-13961381D01*
X8243095Y-13923286D01*
X8243095Y-13875667D01*
X8252619Y-13837571D01*
X8262143Y-13818524D01*
X8271667Y-13809000D01*
X8290714Y-13799476D01*
X8443095Y-13980428D02*
X8452619Y-13989952D01*
X8443095Y-13999476D01*
X8433571Y-13989952D01*
X8443095Y-13980428D01*
X8443095Y-13999476D01*
X8519286Y-13799476D02*
X8652619Y-13799476D01*
X8566905Y-13999476D01*
X8824048Y-13799476D02*
X8728810Y-13799476D01*
X8719286Y-13894714D01*
X8728810Y-13885190D01*
X8747857Y-13875667D01*
X8795476Y-13875667D01*
X8814524Y-13885190D01*
X8824048Y-13894714D01*
X8833571Y-13913762D01*
X8833571Y-13961381D01*
X8824048Y-13980428D01*
X8814524Y-13989952D01*
X8795476Y-13999476D01*
X8747857Y-13999476D01*
X8728810Y-13989952D01*
X8719286Y-13980428D01*
X8957381Y-13799476D02*
X8976429Y-13799476D01*
X8995476Y-13809000D01*
X9005000Y-13818524D01*
X9014524Y-13837571D01*
X9024048Y-13875667D01*
X9024048Y-13923286D01*
X9014524Y-13961381D01*
X9005000Y-13980428D01*
X8995476Y-13989952D01*
X8976429Y-13999476D01*
X8957381Y-13999476D01*
X8938333Y-13989952D01*
X8928810Y-13980428D01*
X8919286Y-13961381D01*
X8909762Y-13923286D01*
X8909762Y-13875667D01*
X8919286Y-13837571D01*
X8928810Y-13818524D01*
X8938333Y-13809000D01*
X8957381Y-13799476D01*
X9109762Y-13999476D02*
X9109762Y-13866143D01*
X9109762Y-13885190D02*
X9119286Y-13875667D01*
X9138333Y-13866143D01*
X9166905Y-13866143D01*
X9185952Y-13875667D01*
X9195476Y-13894714D01*
X9195476Y-13999476D01*
X9195476Y-13894714D02*
X9205000Y-13875667D01*
X9224048Y-13866143D01*
X9252619Y-13866143D01*
X9271667Y-13875667D01*
X9281190Y-13894714D01*
X9281190Y-13999476D01*
X9376429Y-13999476D02*
X9376429Y-13866143D01*
X9376429Y-13885190D02*
X9385952Y-13875667D01*
X9405000Y-13866143D01*
X9433571Y-13866143D01*
X9452619Y-13875667D01*
X9462143Y-13894714D01*
X9462143Y-13999476D01*
X9462143Y-13894714D02*
X9471667Y-13875667D01*
X9490714Y-13866143D01*
X9519286Y-13866143D01*
X9538333Y-13875667D01*
X9547857Y-13894714D01*
X9547857Y-13999476D01*
X9938333Y-13789952D02*
X9766905Y-14047095D01*
X10195476Y-13799476D02*
X10214524Y-13799476D01*
X10233571Y-13809000D01*
X10243095Y-13818524D01*
X10252619Y-13837571D01*
X10262143Y-13875667D01*
X10262143Y-13923286D01*
X10252619Y-13961381D01*
X10243095Y-13980428D01*
X10233571Y-13989952D01*
X10214524Y-13999476D01*
X10195476Y-13999476D01*
X10176429Y-13989952D01*
X10166905Y-13980428D01*
X10157381Y-13961381D01*
X10147857Y-13923286D01*
X10147857Y-13875667D01*
X10157381Y-13837571D01*
X10166905Y-13818524D01*
X10176429Y-13809000D01*
X10195476Y-13799476D01*
X10347857Y-13980428D02*
X10357381Y-13989952D01*
X10347857Y-13999476D01*
X10338333Y-13989952D01*
X10347857Y-13980428D01*
X10347857Y-13999476D01*
X10481190Y-13799476D02*
X10500238Y-13799476D01*
X10519286Y-13809000D01*
X10528810Y-13818524D01*
X10538333Y-13837571D01*
X10547857Y-13875667D01*
X10547857Y-13923286D01*
X10538333Y-13961381D01*
X10528810Y-13980428D01*
X10519286Y-13989952D01*
X10500238Y-13999476D01*
X10481190Y-13999476D01*
X10462143Y-13989952D01*
X10452619Y-13980428D01*
X10443095Y-13961381D01*
X10433571Y-13923286D01*
X10433571Y-13875667D01*
X10443095Y-13837571D01*
X10452619Y-13818524D01*
X10462143Y-13809000D01*
X10481190Y-13799476D01*
X10624048Y-13818524D02*
X10633571Y-13809000D01*
X10652619Y-13799476D01*
X10700238Y-13799476D01*
X10719286Y-13809000D01*
X10728810Y-13818524D01*
X10738333Y-13837571D01*
X10738333Y-13856619D01*
X10728810Y-13885190D01*
X10614524Y-13999476D01*
X10738333Y-13999476D01*
X10833571Y-13999476D02*
X10871667Y-13999476D01*
X10890714Y-13989952D01*
X10900238Y-13980428D01*
X10919286Y-13951857D01*
X10928810Y-13913762D01*
X10928810Y-13837571D01*
X10919286Y-13818524D01*
X10909762Y-13809000D01*
X10890714Y-13799476D01*
X10852619Y-13799476D01*
X10833571Y-13809000D01*
X10824048Y-13818524D01*
X10814524Y-13837571D01*
X10814524Y-13885190D01*
X10824048Y-13904238D01*
X10833571Y-13913762D01*
X10852619Y-13923286D01*
X10890714Y-13923286D01*
X10909762Y-13913762D01*
X10919286Y-13904238D01*
X10928810Y-13885190D01*
X11109762Y-13799476D02*
X11014524Y-13799476D01*
X11005000Y-13894714D01*
X11014524Y-13885190D01*
X11033571Y-13875667D01*
X11081190Y-13875667D01*
X11100238Y-13885190D01*
X11109762Y-13894714D01*
X11119286Y-13913762D01*
X11119286Y-13961381D01*
X11109762Y-13980428D01*
X11100238Y-13989952D01*
X11081190Y-13999476D01*
X11033571Y-13999476D01*
X11014524Y-13989952D01*
X11005000Y-13980428D01*
X11195476Y-13799476D02*
X11195476Y-13837571D01*
X11271667Y-13799476D02*
X11271667Y-13837571D01*
X11566905Y-14075667D02*
X11557381Y-14066143D01*
X11538333Y-14037571D01*
X11528809Y-14018524D01*
X11519286Y-13989952D01*
X11509762Y-13942333D01*
X11509762Y-13904238D01*
X11519286Y-13856619D01*
X11528809Y-13828048D01*
X11538333Y-13809000D01*
X11557381Y-13780428D01*
X11566905Y-13770905D01*
X11633571Y-13818524D02*
X11643095Y-13809000D01*
X11662143Y-13799476D01*
X11709762Y-13799476D01*
X11728809Y-13809000D01*
X11738333Y-13818524D01*
X11747857Y-13837571D01*
X11747857Y-13856619D01*
X11738333Y-13885190D01*
X11624048Y-13999476D01*
X11747857Y-13999476D01*
X11862143Y-13885190D02*
X11843095Y-13875667D01*
X11833571Y-13866143D01*
X11824048Y-13847095D01*
X11824048Y-13837571D01*
X11833571Y-13818524D01*
X11843095Y-13809000D01*
X11862143Y-13799476D01*
X11900238Y-13799476D01*
X11919286Y-13809000D01*
X11928809Y-13818524D01*
X11938333Y-13837571D01*
X11938333Y-13847095D01*
X11928809Y-13866143D01*
X11919286Y-13875667D01*
X11900238Y-13885190D01*
X11862143Y-13885190D01*
X11843095Y-13894714D01*
X11833571Y-13904238D01*
X11824048Y-13923286D01*
X11824048Y-13961381D01*
X11833571Y-13980428D01*
X11843095Y-13989952D01*
X11862143Y-13999476D01*
X11900238Y-13999476D01*
X11919286Y-13989952D01*
X11928809Y-13980428D01*
X11938333Y-13961381D01*
X11938333Y-13923286D01*
X11928809Y-13904238D01*
X11919286Y-13894714D01*
X11900238Y-13885190D01*
X12176428Y-13999476D02*
X12176428Y-13799476D01*
X12262143Y-13999476D02*
X12262143Y-13894714D01*
X12252619Y-13875667D01*
X12233571Y-13866143D01*
X12205000Y-13866143D01*
X12185952Y-13875667D01*
X12176428Y-13885190D01*
X12385952Y-13999476D02*
X12366905Y-13989952D01*
X12357381Y-13980428D01*
X12347857Y-13961381D01*
X12347857Y-13904238D01*
X12357381Y-13885190D01*
X12366905Y-13875667D01*
X12385952Y-13866143D01*
X12414524Y-13866143D01*
X12433571Y-13875667D01*
X12443095Y-13885190D01*
X12452619Y-13904238D01*
X12452619Y-13961381D01*
X12443095Y-13980428D01*
X12433571Y-13989952D01*
X12414524Y-13999476D01*
X12385952Y-13999476D01*
X12566905Y-13999476D02*
X12547857Y-13989952D01*
X12538333Y-13970905D01*
X12538333Y-13799476D01*
X12719286Y-13989952D02*
X12700238Y-13999476D01*
X12662143Y-13999476D01*
X12643095Y-13989952D01*
X12633571Y-13970905D01*
X12633571Y-13894714D01*
X12643095Y-13875667D01*
X12662143Y-13866143D01*
X12700238Y-13866143D01*
X12719286Y-13875667D01*
X12728809Y-13894714D01*
X12728809Y-13913762D01*
X12633571Y-13932809D01*
X12805000Y-13989952D02*
X12824048Y-13999476D01*
X12862143Y-13999476D01*
X12881190Y-13989952D01*
X12890714Y-13970905D01*
X12890714Y-13961381D01*
X12881190Y-13942333D01*
X12862143Y-13932809D01*
X12833571Y-13932809D01*
X12814524Y-13923286D01*
X12805000Y-13904238D01*
X12805000Y-13894714D01*
X12814524Y-13875667D01*
X12833571Y-13866143D01*
X12862143Y-13866143D01*
X12881190Y-13875667D01*
X12957381Y-14075667D02*
X12966905Y-14066143D01*
X12985952Y-14037571D01*
X12995476Y-14018524D01*
X13005000Y-13989952D01*
X13014524Y-13942333D01*
X13014524Y-13904238D01*
X13005000Y-13856619D01*
X12995476Y-13828048D01*
X12985952Y-13809000D01*
X12966905Y-13780428D01*
X12957381Y-13770905D01*
D14*
X7945000Y-14123000D02*
X7945000Y-14223000D01*
X7895000Y-14173000D02*
X7995000Y-14173000D01*
D11*
X8357381Y-14263476D02*
X8243095Y-14263476D01*
X8300238Y-14263476D02*
X8300238Y-14063476D01*
X8281190Y-14092048D01*
X8262143Y-14111095D01*
X8243095Y-14120619D01*
X8443095Y-14244428D02*
X8452619Y-14253952D01*
X8443095Y-14263476D01*
X8433571Y-14253952D01*
X8443095Y-14244428D01*
X8443095Y-14263476D01*
X8576429Y-14063476D02*
X8595476Y-14063476D01*
X8614524Y-14073000D01*
X8624048Y-14082524D01*
X8633571Y-14101571D01*
X8643095Y-14139667D01*
X8643095Y-14187286D01*
X8633571Y-14225381D01*
X8624048Y-14244428D01*
X8614524Y-14253952D01*
X8595476Y-14263476D01*
X8576429Y-14263476D01*
X8557381Y-14253952D01*
X8547857Y-14244428D01*
X8538333Y-14225381D01*
X8528810Y-14187286D01*
X8528810Y-14139667D01*
X8538333Y-14101571D01*
X8547857Y-14082524D01*
X8557381Y-14073000D01*
X8576429Y-14063476D01*
X8766905Y-14063476D02*
X8785952Y-14063476D01*
X8805000Y-14073000D01*
X8814524Y-14082524D01*
X8824048Y-14101571D01*
X8833571Y-14139667D01*
X8833571Y-14187286D01*
X8824048Y-14225381D01*
X8814524Y-14244428D01*
X8805000Y-14253952D01*
X8785952Y-14263476D01*
X8766905Y-14263476D01*
X8747857Y-14253952D01*
X8738333Y-14244428D01*
X8728810Y-14225381D01*
X8719286Y-14187286D01*
X8719286Y-14139667D01*
X8728810Y-14101571D01*
X8738333Y-14082524D01*
X8747857Y-14073000D01*
X8766905Y-14063476D01*
X8957381Y-14063476D02*
X8976429Y-14063476D01*
X8995476Y-14073000D01*
X9005000Y-14082524D01*
X9014524Y-14101571D01*
X9024048Y-14139667D01*
X9024048Y-14187286D01*
X9014524Y-14225381D01*
X9005000Y-14244428D01*
X8995476Y-14253952D01*
X8976429Y-14263476D01*
X8957381Y-14263476D01*
X8938333Y-14253952D01*
X8928810Y-14244428D01*
X8919286Y-14225381D01*
X8909762Y-14187286D01*
X8909762Y-14139667D01*
X8919286Y-14101571D01*
X8928810Y-14082524D01*
X8938333Y-14073000D01*
X8957381Y-14063476D01*
X9109762Y-14263476D02*
X9109762Y-14130143D01*
X9109762Y-14149190D02*
X9119286Y-14139667D01*
X9138333Y-14130143D01*
X9166905Y-14130143D01*
X9185952Y-14139667D01*
X9195476Y-14158714D01*
X9195476Y-14263476D01*
X9195476Y-14158714D02*
X9205000Y-14139667D01*
X9224048Y-14130143D01*
X9252619Y-14130143D01*
X9271667Y-14139667D01*
X9281190Y-14158714D01*
X9281190Y-14263476D01*
X9376429Y-14263476D02*
X9376429Y-14130143D01*
X9376429Y-14149190D02*
X9385952Y-14139667D01*
X9405000Y-14130143D01*
X9433571Y-14130143D01*
X9452619Y-14139667D01*
X9462143Y-14158714D01*
X9462143Y-14263476D01*
X9462143Y-14158714D02*
X9471667Y-14139667D01*
X9490714Y-14130143D01*
X9519286Y-14130143D01*
X9538333Y-14139667D01*
X9547857Y-14158714D01*
X9547857Y-14263476D01*
X9938333Y-14053952D02*
X9766905Y-14311095D01*
X10195476Y-14063476D02*
X10214524Y-14063476D01*
X10233571Y-14073000D01*
X10243095Y-14082524D01*
X10252619Y-14101571D01*
X10262143Y-14139667D01*
X10262143Y-14187286D01*
X10252619Y-14225381D01*
X10243095Y-14244428D01*
X10233571Y-14253952D01*
X10214524Y-14263476D01*
X10195476Y-14263476D01*
X10176429Y-14253952D01*
X10166905Y-14244428D01*
X10157381Y-14225381D01*
X10147857Y-14187286D01*
X10147857Y-14139667D01*
X10157381Y-14101571D01*
X10166905Y-14082524D01*
X10176429Y-14073000D01*
X10195476Y-14063476D01*
X10347857Y-14244428D02*
X10357381Y-14253952D01*
X10347857Y-14263476D01*
X10338333Y-14253952D01*
X10347857Y-14244428D01*
X10347857Y-14263476D01*
X10481190Y-14063476D02*
X10500238Y-14063476D01*
X10519286Y-14073000D01*
X10528810Y-14082524D01*
X10538333Y-14101571D01*
X10547857Y-14139667D01*
X10547857Y-14187286D01*
X10538333Y-14225381D01*
X10528810Y-14244428D01*
X10519286Y-14253952D01*
X10500238Y-14263476D01*
X10481190Y-14263476D01*
X10462143Y-14253952D01*
X10452619Y-14244428D01*
X10443095Y-14225381D01*
X10433571Y-14187286D01*
X10433571Y-14139667D01*
X10443095Y-14101571D01*
X10452619Y-14082524D01*
X10462143Y-14073000D01*
X10481190Y-14063476D01*
X10614524Y-14063476D02*
X10738333Y-14063476D01*
X10671667Y-14139667D01*
X10700238Y-14139667D01*
X10719286Y-14149190D01*
X10728810Y-14158714D01*
X10738333Y-14177762D01*
X10738333Y-14225381D01*
X10728810Y-14244428D01*
X10719286Y-14253952D01*
X10700238Y-14263476D01*
X10643095Y-14263476D01*
X10624048Y-14253952D01*
X10614524Y-14244428D01*
X10833571Y-14263476D02*
X10871667Y-14263476D01*
X10890714Y-14253952D01*
X10900238Y-14244428D01*
X10919286Y-14215857D01*
X10928810Y-14177762D01*
X10928810Y-14101571D01*
X10919286Y-14082524D01*
X10909762Y-14073000D01*
X10890714Y-14063476D01*
X10852619Y-14063476D01*
X10833571Y-14073000D01*
X10824048Y-14082524D01*
X10814524Y-14101571D01*
X10814524Y-14149190D01*
X10824048Y-14168238D01*
X10833571Y-14177762D01*
X10852619Y-14187286D01*
X10890714Y-14187286D01*
X10909762Y-14177762D01*
X10919286Y-14168238D01*
X10928810Y-14149190D01*
X11100238Y-14130143D02*
X11100238Y-14263476D01*
X11052619Y-14053952D02*
X11005000Y-14196809D01*
X11128810Y-14196809D01*
X11195476Y-14063476D02*
X11195476Y-14101571D01*
X11271667Y-14063476D02*
X11271667Y-14101571D01*
X11566905Y-14339667D02*
X11557381Y-14330143D01*
X11538333Y-14301571D01*
X11528809Y-14282524D01*
X11519286Y-14253952D01*
X11509762Y-14206333D01*
X11509762Y-14168238D01*
X11519286Y-14120619D01*
X11528809Y-14092048D01*
X11538333Y-14073000D01*
X11557381Y-14044428D01*
X11566905Y-14034905D01*
X11728809Y-14063476D02*
X11690714Y-14063476D01*
X11671667Y-14073000D01*
X11662143Y-14082524D01*
X11643095Y-14111095D01*
X11633571Y-14149190D01*
X11633571Y-14225381D01*
X11643095Y-14244428D01*
X11652619Y-14253952D01*
X11671667Y-14263476D01*
X11709762Y-14263476D01*
X11728809Y-14253952D01*
X11738333Y-14244428D01*
X11747857Y-14225381D01*
X11747857Y-14177762D01*
X11738333Y-14158714D01*
X11728809Y-14149190D01*
X11709762Y-14139667D01*
X11671667Y-14139667D01*
X11652619Y-14149190D01*
X11643095Y-14158714D01*
X11633571Y-14177762D01*
X11919286Y-14130143D02*
X11919286Y-14263476D01*
X11871667Y-14053952D02*
X11824048Y-14196809D01*
X11947857Y-14196809D01*
X12176428Y-14263476D02*
X12176428Y-14063476D01*
X12262143Y-14263476D02*
X12262143Y-14158714D01*
X12252619Y-14139667D01*
X12233571Y-14130143D01*
X12205000Y-14130143D01*
X12185952Y-14139667D01*
X12176428Y-14149190D01*
X12385952Y-14263476D02*
X12366905Y-14253952D01*
X12357381Y-14244428D01*
X12347857Y-14225381D01*
X12347857Y-14168238D01*
X12357381Y-14149190D01*
X12366905Y-14139667D01*
X12385952Y-14130143D01*
X12414524Y-14130143D01*
X12433571Y-14139667D01*
X12443095Y-14149190D01*
X12452619Y-14168238D01*
X12452619Y-14225381D01*
X12443095Y-14244428D01*
X12433571Y-14253952D01*
X12414524Y-14263476D01*
X12385952Y-14263476D01*
X12566905Y-14263476D02*
X12547857Y-14253952D01*
X12538333Y-14234905D01*
X12538333Y-14063476D01*
X12719286Y-14253952D02*
X12700238Y-14263476D01*
X12662143Y-14263476D01*
X12643095Y-14253952D01*
X12633571Y-14234905D01*
X12633571Y-14158714D01*
X12643095Y-14139667D01*
X12662143Y-14130143D01*
X12700238Y-14130143D01*
X12719286Y-14139667D01*
X12728809Y-14158714D01*
X12728809Y-14177762D01*
X12633571Y-14196809D01*
X12805000Y-14253952D02*
X12824048Y-14263476D01*
X12862143Y-14263476D01*
X12881190Y-14253952D01*
X12890714Y-14234905D01*
X12890714Y-14225381D01*
X12881190Y-14206333D01*
X12862143Y-14196809D01*
X12833571Y-14196809D01*
X12814524Y-14187286D01*
X12805000Y-14168238D01*
X12805000Y-14158714D01*
X12814524Y-14139667D01*
X12833571Y-14130143D01*
X12862143Y-14130143D01*
X12881190Y-14139667D01*
X12957381Y-14339667D02*
X12966905Y-14330143D01*
X12985952Y-14301571D01*
X12995476Y-14282524D01*
X13005000Y-14253952D01*
X13014524Y-14206333D01*
X13014524Y-14168238D01*
X13005000Y-14120619D01*
X12995476Y-14092048D01*
X12985952Y-14073000D01*
X12966905Y-14044428D01*
X12957381Y-14034905D01*
M02*
