M48
; DRILL file {KiCad (5.99.0-12181-g5e8b23af64)} date Fri Nov 12 15:18:26 2021
; FORMAT={-:-/ absolute / inch / decimal}
; #@! TF.CreationDate,2021-11-12T15:18:26+01:00
; #@! TF.GenerationSoftware,Kicad,Pcbnew,(5.99.0-12181-g5e8b23af64)
; #@! TF.FileFunction,MixedPlating,1,2
FMAT,2
INCH
; #@! TA.AperFunction,Plated,PTH,ViaDrill
T1C0.0157
; #@! TA.AperFunction,Plated,PTH,ComponentDrill
T2C0.0295
; #@! TA.AperFunction,Plated,PTH,ComponentDrill
T3C0.0394
%
G90
G05
T1
X4.0945Y-3.937
X4.4882Y-3.4252
X4.9213Y-3.4252
X4.9213Y-3.4646
X5.0325Y-3.9764
X5.0394Y-3.5039
T2
X3.4488Y-3.5748
X3.4488Y-3.6535
X3.4488Y-3.7323
X3.4488Y-3.811
X3.4488Y-4.0866
X3.4488Y-4.1654
X3.4488Y-4.6614
X3.4488Y-4.7402
X3.4488Y-4.9449
X3.4488Y-5.0236
X3.4508Y-4.378
X3.4508Y-4.4567
X3.937Y-4.7953
X4.0157Y-4.7953
X4.2283Y-4.7953
X4.3071Y-4.7953
X4.5197Y-4.7933
X4.5984Y-4.7933
X4.811Y-4.7933
X4.8898Y-4.7933
X4.9508Y-3.8346
X4.9508Y-3.9134
X4.9528Y-3.5512
X4.9528Y-3.6299
X4.9528Y-4.126
X4.9528Y-4.2047
X4.9606Y-4.4016
X4.9606Y-4.4803
T3
X3.2469Y-3.2457
X3.2469Y-3.3457
X3.3469Y-3.2457
X3.3469Y-3.3457
X3.4469Y-3.2457
X3.4469Y-3.3457
X3.5469Y-3.2457
X3.5469Y-3.3457
X3.6469Y-3.2457
X3.6469Y-3.3457
X3.7469Y-3.2457
X3.7469Y-3.3457
X3.8469Y-3.2457
X3.8469Y-3.3457
X3.8913Y-3.7008
X3.8913Y-3.8008
X3.9075Y-4.1598
X3.9075Y-4.2598
X3.9469Y-3.2457
X3.9469Y-3.3457
X3.9913Y-3.7008
X3.9913Y-3.8008
X4.0075Y-4.1598
X4.0075Y-4.2598
X4.0469Y-3.2457
X4.0469Y-3.3457
X4.0913Y-3.7008
X4.0913Y-3.8008
X4.1075Y-4.1598
X4.1075Y-4.2598
X4.1469Y-3.2457
X4.1469Y-3.3457
X4.1913Y-3.7008
X4.1913Y-3.8008
X4.2075Y-4.1598
X4.2075Y-4.2598
X4.2469Y-3.2457
X4.2469Y-3.3457
X4.2913Y-3.7008
X4.2913Y-3.8008
X4.3075Y-4.1598
X4.3075Y-4.2598
X4.3469Y-3.2457
X4.3469Y-3.3457
X4.4075Y-4.1598
X4.4075Y-4.2598
X4.4469Y-3.2457
X4.4469Y-3.3457
X4.5469Y-3.2457
X4.5469Y-3.3457
X4.6469Y-3.2457
X4.6469Y-3.3457
X4.6618Y-4.6299
X4.7469Y-3.2457
X4.7469Y-3.3457
X4.7618Y-4.6299
X4.8469Y-3.2457
X4.8469Y-3.3457
X4.9469Y-3.2457
X4.9469Y-3.3457
X5.0469Y-3.2457
X5.0469Y-3.3457
X5.1469Y-3.2457
X5.1469Y-3.3457
T0
M30
