%TF.GenerationSoftware,KiCad,Pcbnew,(5.99.0-12181-g5e8b23af64)*%
%TF.CreationDate,2021-11-12T15:18:20+01:00*%
%TF.ProjectId,phoniebox_shield,70686f6e-6965-4626-9f78-5f736869656c,rev?*%
%TF.SameCoordinates,Original*%
%TF.FileFunction,Soldermask,Bot*%
%TF.FilePolarity,Negative*%
%FSLAX46Y46*%
G04 Gerber Fmt 4.6, Leading zero omitted, Abs format (unit mm)*
G04 Created by KiCad (PCBNEW (5.99.0-12181-g5e8b23af64)) date 2021-11-12 15:18:20*
%MOMM*%
%LPD*%
G01*
G04 APERTURE LIST*
G04 Aperture macros list*
%AMRoundRect*
0 Rectangle with rounded corners*
0 $1 Rounding radius*
0 $2 $3 $4 $5 $6 $7 $8 $9 X,Y pos of 4 corners*
0 Add a 4 corners polygon primitive as box body*
4,1,4,$2,$3,$4,$5,$6,$7,$8,$9,$2,$3,0*
0 Add four circle primitives for the rounded corners*
1,1,$1+$1,$2,$3*
1,1,$1+$1,$4,$5*
1,1,$1+$1,$6,$7*
1,1,$1+$1,$8,$9*
0 Add four rect primitives between the rounded corners*
20,1,$1+$1,$2,$3,$4,$5,0*
20,1,$1+$1,$4,$5,$6,$7,0*
20,1,$1+$1,$6,$7,$8,$9,0*
20,1,$1+$1,$8,$9,$2,$3,0*%
G04 Aperture macros list end*
%ADD10C,1.750000*%
%ADD11RoundRect,0.250000X-0.625000X0.350000X-0.625000X-0.350000X0.625000X-0.350000X0.625000X0.350000X0*%
%ADD12O,1.750000X1.200000*%
%ADD13RoundRect,0.250000X-0.350000X-0.625000X0.350000X-0.625000X0.350000X0.625000X-0.350000X0.625000X0*%
%ADD14O,1.200000X1.750000*%
%ADD15RoundRect,0.250000X0.625000X-0.350000X0.625000X0.350000X-0.625000X0.350000X-0.625000X-0.350000X0*%
%ADD16RoundRect,0.250000X-0.600000X0.600000X-0.600000X-0.600000X0.600000X-0.600000X0.600000X0.600000X0*%
%ADD17C,1.700000*%
%ADD18R,1.700000X1.700000*%
%ADD19O,1.700000X1.700000*%
G04 APERTURE END LIST*
D10*
%TO.C,U101*%
X99250000Y-105660000D03*
X101790000Y-105660000D03*
X104330000Y-105660000D03*
X106870000Y-105660000D03*
X109410000Y-105660000D03*
X111950000Y-105660000D03*
X99250000Y-108200000D03*
X101790000Y-108200000D03*
X104330000Y-108200000D03*
X106870000Y-108200000D03*
X109410000Y-108200000D03*
X111950000Y-108200000D03*
X120950000Y-117600000D03*
X118410000Y-117600000D03*
%TD*%
D11*
%TO.C,J103*%
X87600000Y-90800000D03*
D12*
X87600000Y-92800000D03*
X87600000Y-94800000D03*
X87600000Y-96800000D03*
%TD*%
D13*
%TO.C,J115*%
X122200000Y-121750000D03*
D14*
X124200000Y-121750000D03*
%TD*%
D13*
%TO.C,J114*%
X114800000Y-121750000D03*
D14*
X116800000Y-121750000D03*
%TD*%
D13*
%TO.C,J113*%
X107400000Y-121800000D03*
D14*
X109400000Y-121800000D03*
%TD*%
D13*
%TO.C,J112*%
X100000000Y-121800000D03*
D14*
X102000000Y-121800000D03*
%TD*%
D11*
%TO.C,J111*%
X87650000Y-111200000D03*
D12*
X87650000Y-113200000D03*
%TD*%
D11*
%TO.C,J110*%
X87600000Y-103800000D03*
D12*
X87600000Y-105800000D03*
%TD*%
D15*
%TO.C,J109*%
X125750000Y-99400000D03*
D12*
X125750000Y-97400000D03*
%TD*%
D15*
%TO.C,J108*%
X125800000Y-92200000D03*
D12*
X125800000Y-90200000D03*
%TD*%
D15*
%TO.C,J107*%
X126000000Y-113800000D03*
D12*
X126000000Y-111800000D03*
%TD*%
D15*
%TO.C,J106*%
X125800000Y-106800000D03*
D12*
X125800000Y-104800000D03*
%TD*%
D11*
%TO.C,J105*%
X87600000Y-125600000D03*
D12*
X87600000Y-127600000D03*
%TD*%
%TO.C,J104*%
X87600000Y-120400000D03*
D11*
X87600000Y-118400000D03*
%TD*%
D16*
%TO.C,J102*%
X109000000Y-94000000D03*
D17*
X106460000Y-94000000D03*
X103920000Y-94000000D03*
X101380000Y-94000000D03*
X98840000Y-94000000D03*
X109000000Y-96540000D03*
X106460000Y-96540000D03*
X103920000Y-96540000D03*
X101380000Y-96540000D03*
X98840000Y-96540000D03*
%TD*%
D18*
%TO.C,J101*%
X82470000Y-84980000D03*
D19*
X82470000Y-82440000D03*
X85010000Y-84980000D03*
X85010000Y-82440000D03*
X87550000Y-84980000D03*
X87550000Y-82440000D03*
X90090000Y-84980000D03*
X90090000Y-82440000D03*
X92630000Y-84980000D03*
X92630000Y-82440000D03*
X95170000Y-84980000D03*
X95170000Y-82440000D03*
X97710000Y-84980000D03*
X97710000Y-82440000D03*
X100250000Y-84980000D03*
X100250000Y-82440000D03*
X102790000Y-84980000D03*
X102790000Y-82440000D03*
X105330000Y-84980000D03*
X105330000Y-82440000D03*
X107870000Y-84980000D03*
X107870000Y-82440000D03*
X110410000Y-84980000D03*
X110410000Y-82440000D03*
X112950000Y-84980000D03*
X112950000Y-82440000D03*
X115490000Y-84980000D03*
X115490000Y-82440000D03*
X118030000Y-84980000D03*
X118030000Y-82440000D03*
X120570000Y-84980000D03*
X120570000Y-82440000D03*
X123110000Y-84980000D03*
X123110000Y-82440000D03*
X125650000Y-84980000D03*
X125650000Y-82440000D03*
X128190000Y-84980000D03*
X128190000Y-82440000D03*
X130730000Y-84980000D03*
X130730000Y-82440000D03*
%TD*%
M02*
